<?xml version='1.0' encoding='utf-8'?>
<svg id="asean-map" class="asean-svg-map" viewBox="1947.168 657.515 492.059 377.586" width="100%" height="auto" xmlns="http://www.w3.org/2000/svg"><g class="map-country" data-country="Indonesia" id="group-id"><path d="M2295.349,962.378   c-0.488,0.32-0.33,0.562,0.475,0.72C2295.663,962.857,2295.507,962.617,2295.349,962.378" id="path2528" /><path d="M2296.595,943.588   c-0.648,0.219-0.721,0.962-0.49,1.51C2296.14,944.552,2296.304,944.049,2296.595,943.588" id="path2530" /><path d="M2297.769,945.888   c-0.533-0.117-0.582,0.122-0.145,0.722C2297.671,946.367,2297.722,946.128,2297.769,945.888" id="path2532" /><path d="M2301.597,936.607   c-0.906,0.193-0.75,1.996,0.227,1.721C2302.396,938.167,2301.812,936.86,2301.597,936.607" id="path2540" /><path d="M2303.353,941.208   c-0.02,0.146-0.043,0.293-0.064,0.438c0.516-0.035,1.018-0.131,1.508-0.289C2304.313,941.313,2303.833,941.264,2303.353,941.208" id="path2542" /><path d="M2305.263,934.008   c0.01,1.131,1.916,2.561,2.73,1.307C2308.573,934.421,2305.714,934.052,2305.263,934.008" id="path2544" /><path d="M2306.171,942.288   c-0.047,0.239-0.092,0.479-0.139,0.72c1.857,0.127,3.463,1.142,5.26,1.521c0.762,0.161,1.576,0.507,2.367,0.295   c0.881-0.233,1.873-0.761,2.813-0.586c-0.77-1.121-2.734-1.048-3.916-1.189C2310.423,942.791,2308.315,942.509,2306.171,942.288" id="path2546" /><path d="M2322.614,1000.607   c-0.053,0.239-0.104,0.479-0.156,0.721c1.447-0.494,3.08-0.271,4.619-0.279c1.51-0.007,2.332-0.776,3.412-1.665   c0.475-0.39,3.289-4.271,2.584-5.058c-2.041-2.268-3.262-2.504-5.971-1.332C2324.315,994.198,2323.53,997.992,2322.614,1000.607" id="path2548" /><path d="M2331.546,1001.188   c0.238-0.073,0.477-0.146,0.713-0.221c-0.439-0.732-0.529-2.143-1.697-1.654C2329.011,999.959,2330.396,1001.15,2331.546,1001.188" id="path2550" /><path d="M2329.892,986.647   c0.086,0.567,0.48,0.938,1.031,1.08C2330.821,987.18,2330.448,986.768,2329.892,986.647" id="path2552" /><path d="M2273.876,937.107   c0.227-0.565,0.129-1.069-0.299-1.512c2.242-0.57,4.107-0.696,5.848-2.308c1.615-1.496,3.301-2.134,5.486-1.596   c2.209,0.544,3.318,2.173,5.225,2.992c1.926,0.827,3.9-0.272,5.695,1.12c-1.361,1.015-0.039,2.375,0.551,3.396   c0.797,1.382-0.098,2.533-0.6,3.808c-1.283,3.265,0.68,7.164,2.164,10.006c0.502-0.733-0.199-2.384,0.625-2.928   c1.158-0.768,1.033,2.666,1.047,2.992c0.029,0.652,0.246,0.813,0.693,1.25c0.645,0.627,0.35,1.473,0.922,2.112   c1.109,1.237,3.377,1.899,4.641,0.582c0.918-0.958,1.865-1.808,2.807-2.737c0.988-0.979,1.174-2.29,2.496-3.131   c1.186-0.753,0.828-3.544,2.346-3.553c1.799-0.012,2.666,0.158,4.344-0.719c1.201-0.628,1.256-1.049,0.713-2.175   c-0.418-0.867,2.215-2.096,2.746-2.378c1.336-0.713,2.574-1.206,3.996-0.476c1.857,0.955,4.07,1.622,5.736,2.872   c1.398,1.05,2.988,1.629,4.545,2.413c1.063,0.537,3.156,2.18,4.4,1.743c1.568-0.551,2.232,0.647,3.844,0.625   c1.689-0.022,2.539,1.724,4.215,1.496c-0.182,5.034-0.455,10.058-0.477,15.083c-0.02,5.262,0.563,10.67,0.354,15.899   c-0.059,1.675-1.225,2.87-0.988,4.647c0.098,0.733,1.084,1.129,1.127,1.589c0.102,1.117,0.016,2.265,0.041,3.381   c0.117,5.254,0.195,10.524,0.18,15.771c-2.262-1.087-2.932-3.551-4.717-5.113c-0.883-0.771-4.16-2.734-2.834-4.097   c-0.879,0.737-2.594,0.425-3.688,0.874c-0.93,0.382-2.705,0.47-2.332-1.094c-0.428,0.588-1.559,1.693-2.375,1.702   c-1.236,0.013,0.018-2.111,0.119-2.412c0.33-0.979,1.508-3.176,0.461-3.71c-0.943-0.48-1.309-1.665-2.063-2.352   c1.09-1.015,2.813,0.761,3.607-0.79c-1.482,1.623-3.842-0.936-5.076-1.938c1.355-1.729,3.26,0.289,4.793,0.358   c-1.377-0.516-2.59-1.435-3.871-2.159c1.398-0.249,0.137-0.686-0.377-1.175c-0.729-0.691-1.459-1.524-1.803-2.465   c-0.42-1.209-1.684-3.473-0.129-4.07c-1.535,0.579-1.734-1.115-0.307-1.37c-0.539-0.001-1.83,0.854-2.289,0.222   c-0.549-0.758,0.395-1.75-0.021-2.591c-0.348,1.847-1.898-1.101-2.518-1.359c-1.057-0.443-1.133-0.699-1.941-1.06   c-0.623-0.277-2.111-0.688-2.514-1.298c-0.555-0.841-3.66-0.908-4.658-1.492c-1.568-0.916-3.387-1.914-5.109-2.458   c-1.664-0.523-4.039-0.04-5.504-0.74c-1.311-0.625-3.055-1.49-3.678-2.9c-0.576-1.31,1.527-1.104,2.232-1.223   c-0.887-0.264-2.01-0.708-2.652,0.173c-0.725,0.992-1.336-0.535-2.064-0.753c0.078,1.477-2.291,0.392-1.27-0.641   c-1.574,0.016-2.188,0.032-2.705-1.881c-0.037,0.557-0.311,1.011-0.797,0.438c-0.668-0.808-0.166-1.312-0.246-2.154   c-0.143-1.543,1.389-2.414,1.439-3.975c-0.377,0.811-1.727,1.097-1.721,2.106c0.008,0.901,0.094,2.305-1.207,2.224   c1.129,0.504,0.238,1.092-0.107,1.72c-0.238,0.228-0.463,0.468-0.676,0.721c-0.012,0.479-0.01,0.959,0.006,1.439   c-0.289,1.021-2.305,2.103-3.406,1.8c-0.977-0.269-1.672-2.512-1.756-3.351c-0.057-0.566,0.689-0.619,1.068-0.8   c1.014-0.479-0.572-1.762-0.316-2.609c-1.234,0.747-2.795-3.252-4.533-3.322c-2.691-0.109-1.256-1.962,0.682-2.158   c2.014-0.204,3.477,1.791,4.859-0.546c1.035-1.749,4.23-2.306,3.422,0.546c0.221-0.483,0.385-0.986,0.492-1.51   c0.293,1.381,1.869-0.327,1.816,1.15c0.209-1.199,0.627-0.532,0.932,0.079c0.287-0.627,0.334-1.439-0.232-1.949   c0.5,0.104,0.982,0.059,1.451-0.141c-0.42-0.501-0.398-0.98,0.063-1.439c-1.535,1.146-0.359-0.82-0.076-1.15   c-1.65,0.139-2.533,1.188-4.309,0.912c-1.105-0.171-2.576,0.874-3.531,0.523c-1.176-0.433-1.664,0.368-2.59-0.545   c-0.318-0.316-1.225,0.263-1.529,0.281c-1.02,0.063-1.832-0.865-2.596-1.393c0.186-0.245,0.377-0.485,0.576-0.72   c-0.813,0.142-1.549-0.81-1.264-1.58c0.105-0.288,0.492-0.683,0.436-1.016c-0.145-0.849-1.461,0.531-0.563-1.006   c-0.736,0.146-0.92,0.154-0.865-0.647c-1.029,1.507-3.063-1.128-3.965-1.08c0.865,1.133-1.195,0.96-1.727,0.595   C2270.772,939.998,2273.614,938.122,2273.876,937.107" id="path2562" /><path d="M2006.519,907.875   c0.309,0.219,1.441,0.339,1.289-0.424c-0.072-0.367-1.297-1.134-1.584-1.432c-0.357-0.372-0.791-0.711-1.357-0.594   c0.313-0.8-0.768-1.404-1.318-1.655c-0.289-0.133-0.51-0.729-0.912-0.408c-0.744,0.597-0.748,1.198-0.045,1.826   C2003.761,906.236,2005.88,906.247,2006.519,907.875" id="path2206" /><path d="M2182.694,973.178   c-0.271,1.214,0.434,2.326,0.33,3.53c1.09-0.521,1.855,1.628,3.057,0.698c0.82-0.635,0.828-0.757,1.939-0.63   c1.045,0.12,1.676-1.066,2.715-0.29c-0.188-1.688-1.607-3.146-1.078-4.877c0.643-2.118,0.969-3.503,0.582-5.824   c-0.324-1.939,0.029-3.465,0.104-5.353c0.035-0.862-0.061-1.719,0.029-2.582c0.15-1.448-0.502-1.446-0.867-2.675   c-0.707-2.388,3.422-4.34,5.23-3.773c1.635,0.512,1.148,4.159,0.295,5.113c-2.402,2.681,1.834,5.73,4.211,6.971   c1.008,0.525-1.252,4.198-0.174,5.693c0.584,0.806,2.379,1.219,3.295,1.352c1.127,0.163,0.746-1.646,0.834-2.284   c0.199-1.438,2.248-1.177,3.236-1.587c0.588-0.245,3.092,0.997,1.594-0.753c1.195,1.852,2.463-1.9,0.514-2.449   c-0.246,1.761-0.852-0.665-1.768-0.649c0.18-0.265,0.359-0.527,0.537-0.79c-0.795-0.034-1.836-1.07-2.32-1.648   c-0.785-0.945,0.178-1.723-0.496-2.671c0.357,0.089,0.719,0.161,1.082,0.221c-0.828-0.502-0.613-1.719,0.432-1.66   c-0.195-0.368-0.449-0.691-0.764-0.967c-0.574-0.628-0.162-1.298-0.553-1.982c-0.326-0.574-1.084-0.618-1.445-1.148   c-0.41-0.604-0.551-1.565-0.889-2.239c-0.51-1.016-0.939-2.009-2.014-2.532c-0.875-0.428-1.301-2.256-2.461-1.708   c0.049-0.622,0.07-1.246,0.061-1.87c1.221,1.031,2.188,1.974,3.414,0.271c1.061-1.478,2.176-1.498,3.684-2.343   c2.068-1.157,3.563-6.019,6.281-5.933c0.775,0.024,0.928,2.268,1.82,1.322c0.533-0.563,1.547-2.003,0.998-2.806   c-0.912-1.332-4.436-0.923-5.514-0.025c0.59,0.063,1.094,0.303,1.516,0.721c-1.418,0.05-5.502-0.944-5.988,0.892   c-0.328,1.229-4.027,1.184-3.803-0.53c-1.229,0.756-2.5,2.011-3.115,3.328c-0.668,1.436-0.975,2.281-2.637,1.92   c-1.09-0.235-2.123-0.521-2.43-1.748c-0.152-0.619-0.213-1.245-0.557-1.805c-0.635-1.027-1.059-0.19-1.756-0.696   c-2.244-1.626-2.367-6.687-1.41-8.935c0.549-1.289,1.469-2.733,2.74-3.417c1.049-0.563,3.633,0.367,4.73,0.767   c0.781,0.281,2.271-0.37,2.967-0.691c1.438-0.667,1.842,0.354,3.236,0.564c1.555,0.234,3.617-0.604,5.277-0.563   c1.988,0.05,3.268,0.162,4.861,1.311c1.984,1.428,8.125,0.465,9.725-1.419c1.102-1.293,1.48-2.741,2.807-3.938   c1.428-1.288,1.35-3.471,2.891-4.622c-0.547-0.345-0.859-0.944-0.66-1.584c-0.564,0.146-1.361-0.254-1.836,0.15   c-0.715,0.606-0.668,1.793-1.646,2.094c-1.496,0.459-0.541,0.922-1.244,1.859c-0.406,0.541-1.408,0.332-1.691,1.072   c-0.707,1.855-3.549,2.188-5.129,1.847c-1.34-0.289-2.922-0.598-4.295-0.528c-0.771,0.039-1.508,0.895-2.143,0.639   c-1.994-0.802-3.404-1.184-5.539-1.405c-1.098-0.113-1.738-0.437-2.904-0.318c-1.328,0.135-1.736-1.68-2.41-1.667   c-0.867,0.017-4.104-1.572-4.279,0.232c-0.238,2.462-2.459,4.806-4.277,2.224c-0.168,0.808-0.428,1.42-1.051,1.972   c-0.842,0.745-0.664,1.896-1.48,2.559c-1.563,1.264,0.494,3.464-1.104,4.61c-0.137-0.565-0.545-0.95-1.154-0.79   c0.404,1.527,1.586,1.154,1.109,2.916c-0.434,1.605,1.041,3.078,0.59,4.715c-0.336-0.609-0.48-1.313-1.021-1.801   c-0.889,2.438-2.799,3.71-2.918,6.479c-0.055,1.236,0.063,2.557-0.021,3.761c-0.098,1.412-1.412,2.327-1.502,3.839   c-0.115,2.001-3.385,2.924-2.865,4.595c0.293,0.94,1.043,0.354,0.238,1.687c-0.697,1.153,0.238,3.652,0.711,4.842   c0.646-0.73,2.32-1,3.23-1.05c1.988-0.106,0.453,1.822,1.164,2.979c1.176,1.92,1.006,3.563,0.785,5.772   C2184.147,968.941,2183.837,971.76,2182.694,973.178" id="path2348" /><path d="M2202.544,972.388   c-2.285,0.807-0.053,3.407,0.063,3.296C2203.2,975.112,2203.024,973.033,2202.544,972.388" id="path2366" /><path d="M2202.353,932.498   c-0.393-0.724-1.414-0.752-1.438,0.22C2201.435,932.915,2201.915,932.841,2202.353,932.498" id="path2368" /><path d="M2203.429,931.708   c-0.463-0.655-1.033-0.637-1.512,0C2202.39,932.04,2202.952,932.027,2203.429,931.708" id="path2370" /><path d="M2206.899,975.486   c0.277-0.37,0.977-1.164,0.674-1.706c-0.553-0.991,0.42-1.438,0.641-2.293c0.121-0.467,0.551-3.653-0.695-2.964   c-0.615,0.341-1.432,0.79-1.957,1.247c-0.988,0.857,0.639,1.957-0.049,2.874c-0.266,0.354-0.939,1.575-0.678,2.043   c0.43,0.755,1.688,0.53,1.633-0.359C2206.601,974.718,2206.745,975.104,2206.899,975.486" id="path2372" /><path d="M2210.87,966.557   c-1.85,0.034-2.307,4.021-2.313,5.433c-0.004,1.474-0.547,2.107-1.014,3.452c-0.58,1.665,0.432,1.222,1.418,2.206   c0.416-0.612,0.418-1.434,0.857-2.02c0.443-0.59,1.34-0.27,1.762-0.833c0.604-0.807-0.814-2.226-1.563-1.398   c0.168-0.876,0.074-1.794,0.27-2.667c0.129-0.575,1.09-2.481,1.422-0.793C2212.438,968.602,2210.858,967.828,2210.87,966.557" id="path2378" /><path d="M2212.485,942.647   c-0.035-0.512,0.01-1.015,0.133-1.511c2.756,1.426,2.037-4.005-0.145-0.649c-0.723-1.063,0.715-1.361-0.742-1.811   c-0.498-0.152-1.086-0.216-1.547,0.084c-1.053,0.686-0.795,2.448-0.512,3.456c0.805-0.414,1.26-1.229,1.639-2.01   C2212.104,940.775,2211.36,942.564,2212.485,942.647" id="path2386" /><path d="M2210.597,962.878   c-0.803,0.344-0.623,1.85,0.203,2.164C2212.03,965.512,2212.595,963.137,2210.597,962.878" id="path2388" /><path d="M2213.116,938.838   c-0.238,0.306-0.393,0.231-0.146,0.721C2213.019,939.317,2213.065,939.078,2213.116,938.838" id="path2394" /><path d="M2213.487,943.088   c-0.316,0.124-0.48,0.363-0.496,0.721C2213.157,943.567,2213.323,943.328,2213.487,943.088" id="path2396" /><path d="M2214.452,973.897   c0.104,0.513,0.041,0.716,0.689,0.722C2214.911,974.378,2214.683,974.138,2214.452,973.897" id="path2398" /><path d="M2215.776,975.768   c0.08,0.406,0.33,0.624,0.758,0.649C2216.282,976.2,2216.03,975.983,2215.776,975.768" id="path2400" /><path d="M2218.005,979.447   c-0.488,0.519-0.307,0.759,0.541,0.721C2218.366,979.928,2218.187,979.688,2218.005,979.447" id="path2404" /><path d="M2221.487,942.798   c-1.25,1.836-0.238,3.437,1.955,2.729c0.346-0.215,0.705-0.406,1.076-0.574c0.418,0.084,0.842,0.125,1.268,0.121   c0.795-0.398,2.188-0.082,2.549-1.126c-0.576,0.07-0.961-0.231-1.084-0.79C2226.327,944.471,2222.876,942.305,2221.487,942.798" id="path2408" /><path d="M2229.173,904.635   c-0.732-0.173-0.818,0.066-0.25,0.721C2229.007,905.114,2229.091,904.875,2229.173,904.635" id="path2414" /><path d="M2230.903,899.45   c0.471-0.901-0.678-3.776-1.846-2.521C2230.226,897.254,2229.755,898.961,2230.903,899.45" id="path2416" /><path d="M2229.054,943.878   c-1.029,1.085,1.625,1.142,2.143,1.148c1.402,0.022,3.48,0.239,4.553-0.858C2233.54,943.843,2231.206,944.66,2229.054,943.878" id="path2418" /><path d="M2233.163,945.527   c-1.541,0.334-0.119,3.852,0.674,4.398C2234.153,949.369,2233.53,946.093,2233.163,945.527" id="path2422" /><path d="M2238.396,961.588   c1.027-0.525,3.324-0.876,3.939-1.885c0.836-1.276,0.363-2.213-0.969-2.506c1.051-1.19-1.25-1.925-2.043-2.122   c-1.49-0.369-2.813,0.094-4.287,0.253c-1.809,0.197-2.182,1.093-1.357,2.835C2234.569,959.994,2236.669,960.691,2238.396,961.588" id="path2424" /><path d="M2238.841,895.635   c0.223-0.576,0.029-1.154-0.436-1.512C2238.526,894.635,2238.671,895.139,2238.841,895.635" id="path2426" /><path d="M2239.202,893.979   c0.82-0.813,1.066-2.084,0.965-3.163c-0.053-0.556-0.467-2.199-1.037-0.882c-0.395,0.916,0.639,1.645,0.26,2.339   C2239.044,892.912,2238.382,893.386,2239.202,893.979" id="path2428" /><path d="M2243.099,930.768   c-0.904-0.388-1.609,1.641-1,2.159C2243.153,933.825,2243.243,931.313,2243.099,930.768" id="path2432" /><path d="M2243.114,933.728   c-0.865,0.45-0.418,1.808,0.588,1.51C2243.589,934.701,2243.394,934.197,2243.114,933.728" id="path2434" /><path d="M2243.767,921.048   c-0.217,0.344-0.088,0.477,0.225,0.79C2243.917,921.574,2243.841,921.311,2243.767,921.048" id="path2438" /><path d="M2245.329,931.128   c-0.234,0.314-0.475,0.628-0.715,0.938c-0.244-0.234-0.486-0.477-0.725-0.721c-0.65,1.998,0.32,1.27,0.953,2.66   c0.143,0.309-0.775,1.63,0.209,1.394c0.533-0.128,1.105-0.435,1.307,0.27c0.229,0.812,3.094-0.55,0.689-1.21   c-0.98-0.271-1.217-0.835-0.691-1.685C2246.687,932.247,2245.626,931.422,2245.329,931.128" id="path2440" /><path d="M2244.288,925.228   c-0.18,0.34-0.328,0.251,0.004,0.721C2244.292,925.708,2244.29,925.468,2244.288,925.228" id="path2442" /><path d="M2244.731,940.848   c-1.107,0.865-0.52,2.423,0.805,2.602c0.559,0.075,1.051-0.359,1.604-0.359c0.604,0,1.201,0.19,1.805,0.226   c2.055,0.114,0.027-1.854-0.588-2.167C2247.007,940.46,2246.054,939.809,2244.731,940.848" id="path2444" /><path d="M2244.562,922.057   c-0.166-0.021-0.332-0.047-0.5-0.069c0.133,0.287,0.301,0.552,0.504,0.791C2244.563,922.538,2244.562,922.298,2244.562,922.057" id="path2446" /><path d="M2246.466,928.397   c0.066,0.895-0.279,1.828,0.355,2.604c0.611,0.749,1.262,1.109,1.623,2.064c0.395,1.043,2.338,3.292,3.25,2.742   c-2.619-2.669-2.939-5.888-3.473-9.319c-0.232-1.486-0.18-2.71,1.678-1.766c1.58,0.803,3.867,1.289,5.623,1.444   c-1.105-0.539-1.133-1.883-2.029-2.59c-0.9-0.709-3.436-0.594-2.346-2.428c0.725-1.225,2.658-1.264,3.016-2.787   c0.244-1.027-0.492-2.753-0.061-3.506c-1.85-0.47-3.855,1.354-4.596,2.881c1.725,0.083,0.047,0.978-0.432,1.166   c-1.041,0.411-0.58,1.532-1.066,2.297c-0.508,0.793-1.594-0.021-1.916-0.549c-0.578-0.938,0.607-1.547,1.244-1.967   c1.313-0.866,2.156-3.534,1.428-5.053c-0.313-0.649-1.406-0.886-1.146-1.757c0.271-0.835,1.43-1.352,1.146-2.347   c-1.762,0.014-2.641,2.235-3.053,3.606c-0.439,1.454-1.58,4.025-1.311,5.465c0.131,0.707,0.439,1.444,0.84,2.042   c0.16,0.283,0.389,0.491,0.686,0.622c-0.477,0.601-0.645,1.336-0.564,2.09c0.104,0.985,0.445,1.55,1.037,2.283   C2246.993,926.377,2246.593,927.574,2246.466,928.397" id="path2452" /><path d="M2245.589,938.617   c-0.262,0.193-0.521,0.388-0.785,0.58c0.535,0.071,1.039-0.024,1.51-0.29C2246.071,938.812,2245.831,938.715,2245.589,938.617" id="path2454" /><path d="M2245.245,956.688   c-0.432,0.603-0.236,0.842,0.584,0.721C2245.634,957.168,2245.438,956.928,2245.245,956.688" id="path2456" /><path d="M2246.319,955.758   c-0.172,0.261-0.24,0.547-0.205,0.859c0.271,0.004,0.535-0.044,0.789-0.141C2246.735,956.217,2246.54,955.978,2246.319,955.758" id="path2458" /><path d="M2248.188,953.668   c-0.227,0.369-0.463,0.729-0.715,1.08C2248.044,954.629,2248.323,954.246,2248.188,953.668" id="path2462" /><path d="M2263.698,958.486   c1.613,0.931,3.295,1.576,4.838,2.728c1.793,1.338,1.914-0.668,1.572-2.005c-0.176-0.823-1.281-1.088-1.449-1.871   c-0.172-0.809-0.178-1.71-0.98-2.188c-0.742-0.441-1.023-1.02-1.992-0.832s-1.9,0.054-2.693-0.571   c-0.773-0.608-1.764-1.071-2.764-1.04c-1,0.03-1.463,0.844-2.346,1.038c-0.781,0.17-1.082-0.237-1.5-0.726   c-0.148-0.174-2.598,0.128-2.949,0.104c-3.367-0.244-6.902,2.146-5.506,5.877c0.023-0.761,1.055-3.849,2.143-3.602   c-0.34,1.017,1.473,2.64,2.34,2.8c0.355,0.066,4.387-3.298,3.434-0.71c0.633-0.139,4.373,1.362,4.576,0.075   C2260.597,956.456,2263.501,957.375,2263.698,958.486" id="path2464" /><path d="M2248.649,959.498   c-0.557,0.273-0.961,0.843-0.783,1.51c0.844-0.106,1.395-0.768,2.184-1c-0.697,1.292,1.035,0.056,0.828-1.159   C2250.065,958.903,2249.513,959.67,2248.649,959.498" id="path2466" /><path d="M2249.669,908.595   c0.23-0.327,0.385-0.222,0.102-0.72C2249.737,908.114,2249.702,908.354,2249.669,908.595" id="path2468" /><path d="M2250.716,910.971   c2.734-0.608,3.832-2.907,2.322-5.327c-0.352,0.78-1.242,0.979-1.799,1.558C2250.274,908.2,2250.183,909.823,2250.716,910.971" id="path2470" /><path d="M2251.817,958.848   c-0.209,0.269-0.234,0.559-0.064,0.87c0.295-0.145,0.557-0.337,0.787-0.58C2252.3,959.041,2252.058,958.943,2251.817,958.848" id="path2474" /><path d="M2252.896,958.638   c-0.262,0.747,0.355,1.384,1.094,1.011C2253.892,959.08,2253.485,958.662,2252.896,958.638" id="path2478" /><path d="M2259.146,928.397   c0.381,0.646,0.949,1.178,1.658,1.439C2260.302,929.32,2259.802,928.73,2259.146,928.397" id="path2482" /><path d="M2264.062,945.888   c0.492,0.166,0.996,0.286,1.514,0.36c0.553-0.014,0.846-0.515,1.438-0.432c-0.586-0.797,0.625-1.186-0.008-2.396   c-0.678-1.297-3.539,0.847-4.684,1.025C2262.505,945.259,2263.233,945.857,2264.062,945.888" id="path2484" /><path d="M2263.229,938.328   c-0.297,0.146-0.563,0.342-0.797,0.579C2263.126,939.29,2263.392,939.098,2263.229,938.328" id="path2486" /><path d="M2264.978,928.468   c0.121,0.24,0.242,0.479,0.363,0.721C2265.435,928.586,2265.251,928.774,2264.978,928.468" id="path2488" /><path d="M2269.679,932.208   c3.014,0.852-0.008-2.043-0.664-2.729c0.848-0.12,1.422,0.791,1.883,1.338c0.859,1.021,1.084,0.143,1.914,0.557   c1.572,0.782,1.701-1.458,0.557-2.083c-1.078-0.589-6.695-1.431-6.803,0.688c1.43-0.966,0.65,0.594-0.217,0.29   c0.691,0.882,2.256,0.279,1.959,1.869c0.08-0.544,0.471-0.956,1.004-1.079C2269.454,931.435,2269.575,931.817,2269.679,932.208" id="path2490" /><path d="M2267.606,935.598   c-0.252,1.355,3.395,0.879,3.02-0.51C2269.856,935.949,2268.563,935.298,2267.606,935.598" id="path2494" /><path d="M2269.028,932.066   c-0.43,0.178-0.766,0.464-1.006,0.859C2268.649,933.307,2270.048,932.489,2269.028,932.066" id="path2496" /><path d="M2271.071,936.168   c-2.732,0.456-1.646,2.363-0.156,3.83C2271.78,940.848,2273.462,936.632,2271.071,936.168" id="path2500" /><path d="M2272.876,937.038   c-0.225,0.319-0.451,0.18-0.287,0.72C2272.685,937.518,2272.78,937.277,2272.876,937.038" id="path2506" /><path d="M2273.675,963.678   c0.145,0.447,0.143,0.634,0.693,0.721C2274.136,964.157,2273.907,963.918,2273.675,963.678" id="path2508" /><path d="M2274.55,962.736   c-0.631-0.094-0.543,0.146,0.262,0.722C2274.726,963.218,2274.636,962.978,2274.55,962.736" id="path2510" /><path d="M2289.181,963.968   c-0.229,0.997,1.754,1.209,2.268,1.721C2290.839,964.904,2289.79,964.749,2289.181,963.968" id="path2522" /><path d="M2215.091,1014.938   c0.42,0.295,0.393,0.604,0.973,0.359c0.283,1.066-1.668,1.405-1.734,2.812c0.844-0.267,1.736-0.033,2.6-0.198   c1.125-0.218,1.877-1.432,3.031-1.465c1.855-0.053,2.449-0.583,3.578-1.958c0.729-0.888,1.977-2.009,2.223-3.122   c0.375-1.691-0.549-0.333,0.902-0.829l0.813-3.828l-1.73-1.265c-2.895,1.204-0.549,1.881-4.014,2.561   c-0.861,0.169,0.018,2.649-0.57,3.041c-0.588,0.394-0.857-0.929-1.242-0.363c-0.385,0.566-1.998-1.448-2.254-0.758   C2217.411,1010.615,2215.288,1014.17,2215.091,1014.938" id="path2392" /><path d="M2180.739,998.807   c-0.492,0.198-0.635,0.559-0.432,1.08C2180.978,999.824,2181.114,999.358,2180.739,998.807" id="path2346" /><path d="M2074.864,984.986   c-0.299,0.135-0.551,0.327-0.754,0.58C2074.831,985.95,2075.081,985.757,2074.864,984.986" id="path2278" /><path d="M2086.038,980.878   c-0.664-0.496-3.902-1.09-4.502-0.5c-0.178-2.038-1.947,0.629-2.172,1.3c-0.23,0.68-0.064,3.95-1.588,2.66   c-0.172,1.075-0.779,1.938-1.105,2.95c-0.494-1.011-1.396-0.734-2.104-0.28c2.4,1.126,5.057-0.225,7.25,1.229   c0.686,0.453,1.625,0.489,2.363,0.832c1.182,0.546-0.363,1.381-0.479,2.17c-0.314,2.13,5.803,1.761,6.957,1.964   c2.221,0.394,4.154,1.991,6.383,2.555c0.703,0.178,1.666,0.411,2.324,0.063c0.701-0.373,0.486-1.01,1.527-1.039   c2.656-0.077,5.389,0.551,7.924,1.371c3.137,1.016,6.213,2.649,9.406,3.366c1.326,0.299,3.172,0.024,4.383,0.594   c1.246,0.586,2.24,0.049,3.563,0.176c2.707,0.258,5.828,1.924,8.174,0.24c1.91-1.375,4.418,1.133,6.215,2.024   c0.605,0.303,4.193,0.521,4.148,0.932c-0.08,0.747,1.074,1.195,1.66,0.9c0.434-0.219-0.867-1.719-1.021-1.932   c-1.35-1.861-0.01-3.706,0.029-5.622c0.025-1.203-1.188-1.429-2.08-1.701c-1.525-0.468-1.941,0.182-3.346,0.044   c-1.328-0.128-3.055,0.826-4.236,0.266c-0.75-0.355-2.879-1.052-3.27-1.847c-0.336-0.679,0.699-3.896-0.869-2.482   c0.254-1.064-0.744-2.099-0.738-3.171c-0.938,0.497-2.262,0.154-3.299,0.255c-0.414-0.044-0.762-0.228-1.047-0.548   c-0.768-0.623-1.48-0.155-2.279-0.565c-0.418-0.217-1.215-1.892-1.857-1.051c-0.637,0.831-2.041,0.688-2.645-0.252   c-1.426-2.225-2.934-2.496-3.779,0.27c-0.285,0.932-0.752,3.048-2.207,2.581c-0.813-0.262-1.008-0.675-1.895-0.614   c-0.717,0.05-1.457,0.237-2.188,0.077c-1.434-0.313-2.021-0.234-3.381-0.149c-0.787,0.05-2.123-0.99-2.801-0.607   c-2.742,1.546-3.629-2.444-4.82-3.968c-1.07-1.404-0.824-0.104-1.73-0.104c-1.063,0-2.059-1.536-3.135-0.986   c-1.02,0.521-1.805-0.853-2.475-1.394c-1.102-0.888-1.879-0.525-3.082-1.22C2088.052,980.672,2087.11,982.057,2086.038,980.878" id="path2280" /><path d="M2102.241,994.928   c0.125,0.758,1.041,0.686,1.563,0.721C2103.319,995.315,2102.798,995.075,2102.241,994.928" id="path2296" /><path d="M2133.591,988.088   c-0.74-0.117-2.514,1.334-1.592,2.057c0.867,0.681,2.869,1.271,2.898,0.104c1.283,1.396,2.742,0.588,4.107,0.086   c0.563-0.207,1.182-0.374,1.807-0.236c-0.195-0.97,0.883-0.947,1.5-1.149c-0.352-1.439-2.268-1.104-3.27-0.963   C2137.257,988.234,2135.325,987.607,2133.591,988.088" id="path2308" /><path d="M2131.608,978.008   c-0.57,0.089-0.668,0.502-0.451,1C2131.841,978.998,2131.972,978.551,2131.608,978.008" id="path2310" /><path d="M2144.159,989.527   c0.104,0.533,0.023,0.775,0.709,0.789C2144.646,990.041,2144.411,989.776,2144.159,989.527" id="path2312" /><path d="M2145.458,998.447   c-0.811,1.775,1.633,2.639,2.896,3.218c0.797,0.364,1.438,0.737,2.01,1.423c1.031,1.237-0.166,0.908-0.162,1.803   c0.002,0.585,2.176-2.09,2.277-2.125c0.955-0.347,3.344-1.315,2.018-2.606c-0.959-0.935-2.82-2.251-4.1-1.521   C2148.937,999.475,2147.034,999.499,2145.458,998.447" id="path2314" /><path d="M2145.647,990.168   c0.223,0.184,0.461,0.184,0.723,0C2146.13,990.168,2145.89,990.168,2145.647,990.168" id="path2316" /><path d="M2151.522,987.578   c-0.582,0.323-0.68,0.879-0.119,1.369c0.506-0.685,1.416-0.787,2.213-0.432C2153.218,987.649,2152.312,987.632,2151.522,987.578" id="path2318" /><path d="M2153.999,1004.647   c0.203-0.386,0.174-0.771-0.084-1.16c-0.271,0.17-0.496,0.388-0.676,0.649C2153.493,1004.307,2153.747,1004.478,2153.999,1004.647" id="path2320" /><path d="M2159.694,999.527   c-1.004,0.521-2.221,1.486-1.996,2.811c0.18,1.053-0.063,2.756-1.496,1.66c-0.994,1.72,4.777,1.238,5.02,1.51   c-0.557-1.053,0.818-3.072,1.268-3.927C2163.175,1000.271,2160.671,999.152,2159.694,999.527" id="path2322" /><path d="M2171.712,1005.647   c1.492-0.8,3.008-1.06,3.768-2.729c0.375,0.555-0.297,1.702,0.299,1.998c0.637,0.316,1.047,0.084,1.598-0.144   c0.693-0.288,1.309,0.132,2.018,0.234c-0.395-0.479-0.895-0.745-1.496-0.8c1.316-0.831,3.416,0.728,3.641-1.511   c-1.135,1.548-1.197-1.317-1.545-1.917c-0.84-1.451-2.252,0.038-2.129,1.127c-0.297-1.084-1.271-2.927-2.406-1.557   c-0.859,1.034-1.797-1.004-2.313-1.53c-0.758-0.771-3.59-0.186-2.662,1.104c1.135,1.577,2.496,1.952,4.125,2.842   c-0.441,0.656-1.734,1.012-2.479,1.181c-1.275,0.289-1.518-0.902-2.123-1.72c-1.414-1.902-5.344-1.228-6.557,0.28   c-0.582,0.725,0.158,1.854-0.373,2.593c-0.711,0.988,0.756,1.782,1.568,1.992c0.506,0.13,0.932,0.154,1.332-0.174   c0.742-0.606,0.744-0.207,1.762-0.247C2169.169,1006.616,2170.231,1005.182,2171.712,1005.647" id="path2328" /><path d="M2168.837,1001.048   c0.463-0.611,0.697-1.355,1.074-2.021C2168.351,998.34,2168.614,1000.112,2168.837,1001.048" id="path2330" /><path d="M2179.636,1010.978   c0.818,1.786,2.486,1.729,4.123,1.909c1.938,0.213,3.6,1.983,4.859,3.354c2.363,2.572,7.182,0.245,4.35-2.63   c-0.885-0.896-1.555-1.642-2.752-1.644c0.057,0-2.061-2.309-2.322-2.527c-0.191-0.162-3.4-0.11-3.547-0.014   C2182.925,1010.384,2180.731,1008.865,2179.636,1010.978" id="path2342" /><path d="M2183.534,1001.397   c-0.355,0.671-0.795,1.455-0.057,2.17C2183.427,1002.573,2185.36,1002.092,2183.534,1001.397" id="path2350" /><path d="M2184.868,1002.838   c0.248,0.565,0.219,1.097-0.09,1.59c0.986,0.238,0.734-0.873,0.895-1.439C2185.405,1002.938,2185.136,1002.888,2184.868,1002.838" id="path2352" /><path d="M2187.681,1004.718   c0.742-0.411,2.266,0.053,3.158-0.049c0.822-0.094,2.086,0.088,2.914,0.254c0.906,0.183,1.457,1.177,2.445,0.711   c0.684-0.32,2.418,0.298,2.031-1.066c2.316,0.938,3.229,0.321,5.33-0.464c1.404-0.524,6.525,0.188,5.553-2.706   c1.014,0.19,0.799-1.043,1.723-1.068c-0.504-1.19-1.92-2.966-2.078-0.65c0.436-0.284,0.912-0.334,1.434-0.148   c-0.916,1.151-2.703,1.229-3.354,2.641c-0.783,1.708-2.418,0.571-3.455-0.327c-0.982-0.853-2.008,0.557-3.016,0.168   c-0.533-0.205-0.465,0.203-0.768,0.51c-0.473,0.48-1.521-0.356-1.918-0.628c-1.322-0.901-3.346-1.464-4.854-1.81   c-2.377-0.544-3.061,0.34-4.926,1.303c-0.936,0.484-1.568,0.472-1.576,1.82C2186.323,1003.902,2186.753,1005.973,2187.681,1004.718   " id="path2354" /><path d="M2191.202,978.508   c-1.211,0.412-0.357,4.977-0.016,5.899C2191.306,982.435,2191.642,980.504,2191.202,978.508" id="path2356" /><path d="M2192.558,989.168   c-0.191,0.356-0.166,0.717,0.082,1.08c0.268-0.146,0.494-0.341,0.678-0.58C2193.062,989.502,2192.81,989.335,2192.558,989.168" id="path2358" /><path d="M2193.956,991.328   c0.246,0.615,1.104,0.298,1.453,0.14C2194.925,991.497,2194.438,991.45,2193.956,991.328" id="path2360" /><path d="M2199.374,1020.197   c0.264,0.105,0.5,0.057,0.713-0.149C2199.849,1020.098,2199.612,1020.147,2199.374,1020.197" id="path2362" /><path d="M2200.853,1019.688   c-0.041,0.119-0.082,0.239-0.121,0.359c0.594,0.219,1.438,0.057,1.871-0.345c0.221-0.186,0.258-0.413,0.115-0.685   C2202.157,1018.103,2201.409,1019.383,2200.853,1019.688" id="path2364" /><path d="M2209.464,1021.566   c-0.271,0.466-0.258,0.945,0.043,1.439c1.172-0.692,2.932-1.897,4.238-2.239c-0.289-0.465-0.545-0.944-0.768-1.438   C2211.649,1019.956,2210.958,1021.021,2209.464,1021.566" id="path2374" /><path d="M2209.962,1002.128   c0.088,0.213,0.174,0.426,0.262,0.641c0.262-0.532,0.641-0.962,1.133-1.29C2210.767,1001.457,2210.302,1001.673,2209.962,1002.128" id="path2380" /><path d="M2211.319,1000.107   c-0.314,0.281-0.451,0.643-0.418,1.079c0.607-0.077,2.031,0.196,2.188-0.648C2213.286,999.473,2211.786,999.824,2211.319,1000.107" id="path2382" /><path d="M2213.823,1016.307   c-0.484,0.328-0.771,0.904-0.744,1.511C2214.03,1017.942,2214.144,1016.994,2213.823,1016.307" id="path2384" /><path d="M2213.7,1000.038   c0.215,0.22,0.4,0.459,0.559,0.72c-0.545,0.229-1.406,0.644-1.547,1.283c-0.248,1.132,1.824,0.275,2.277,0.587   c-0.254-1.357,1.746-2.451,2.82-2.66c-1.531-1.546-2.098,0.457-3.037,0.931C2215.175,999.857,2214.44,999.922,2213.7,1000.038" id="path2390" /><path d="M2218.149,1000.607   c-0.283,0.294-0.398,0.653-0.346,1.079c0.607-0.146,1.182,0.172,1.502,0.721c0.537-0.608,1.627-2.077,0.77-2.949   C2219.749,1000.259,2218.899,1000.388,2218.149,1000.607" id="path2402" /><path d="M2221.899,998.807   c-0.385,0.469-0.857,1.66,0.436,0.94c-0.725,0.333-1.318,1.015-1.295,1.869c1.77-0.169,3.83-0.023,5.438-0.771   c1.016-0.472,0.568-1.575-0.486-1.759c-0.625-0.107-1.145,0.149-1.764,0.091C2223.448,999.104,2222.687,998.701,2221.899,998.807" id="path2406" /><path d="M2230.872,998.958   c-0.566-0.059-0.91,0.899-0.98,1.29C2230.413,1000.009,2230.776,999.53,2230.872,998.958" id="path2410" /><path d="M2231.862,997.807   c1.408-1.257,2.898-0.971,4.711-0.66c0.963,0.165,1.771-1.672,2.977-1.648c-1.727-1.932-2.48-1.242-4.676-0.363   c-0.613,0.246-1.104-0.328-1.619-0.1C2232.312,995.453,2231.925,996.85,2231.862,997.807" id="path2420" /><path d="M2244.292,993.407   c-0.277,0.378-0.389,0.813-0.334,1.301C2244.587,994.485,2244.853,993.98,2244.292,993.407" id="path2430" /><path d="M2246.272,999.098   c-0.109,0.851,0.137,0.899,0.734,0.15C2246.763,999.197,2246.519,999.147,2246.272,999.098" id="path2436" /><path d="M2247.241,998.527   c-0.221,1.255,2.203,1.676,2.33,0.279C2248.796,998.951,2248.005,998.744,2247.241,998.527" id="path2450" /><path d="M2249.694,999.458   c0.043,0.217,0.09,0.435,0.133,0.649c0.258-0.18,0.477-0.396,0.658-0.649C2250.222,999.458,2249.958,999.458,2249.694,999.458" id="path2460" /><path d="M2253.435,989.598   c-0.309,0.193-0.451,0.48-0.432,0.86C2253.8,990.547,2253.942,990.261,2253.435,989.598" id="path2472" /><path d="M2255.39,999.316   c0.271,0.488,0.676,0.706,1.209,0.649C2256.438,999.359,2255.952,999.092,2255.39,999.316" id="path2476" /><path d="M2261.249,995.928   c-0.598,0.56-0.148,1.93,0.789,1.912C2263.827,997.807,2262.835,995.744,2261.249,995.928" id="path2480" /><path d="M2270.022,1000.688   c1.152-0.396,2.168-1.136,3.094-1.881C2271.909,999.288,2270.661,999.17,2270.022,1000.688" id="path2492" /><path d="M2270.71,993.338   c-0.078,0.619,0.166,0.643,0.729,0.069C2271.194,993.385,2270.952,993.36,2270.71,993.338" id="path2498" /><path d="M2271.94,992.617   c-0.1,0.193-0.199,0.388-0.301,0.58c0.594,0.193,0.957-0.068,1.027-0.649C2272.427,992.57,2272.183,992.595,2271.94,992.617" id="path2502" /><path d="M2276.565,990.027   c-1.182,0.072-4.197,4.053-2.957,5.108c-2.428-1.072-0.305,4.782,0.648,2.077c0.42-1.197,1.676-1.783,2.223-2.923   c0.453-0.942-0.357-3.073,0.805-3.475C2277.079,990.523,2276.839,990.261,2276.565,990.027" id="path2504" /><path d="M2277.356,990.027   c0.439,0.639,1.287,0.464,1.82,1.011C2279.099,990.051,2278.095,989.971,2277.356,990.027" id="path2512" /><path d="M2284.737,977.566   c-0.195-0.23-0.439-0.301-0.734-0.209c0.342,0.521-0.063,2.125,0.646,2.339C2285.755,980.032,2284.952,977.953,2284.737,977.566" id="path2516" /><path d="M2285.267,976.708   c-0.641-0.132-0.648,0.108-0.025,0.72C2285.247,977.188,2285.257,976.947,2285.267,976.708" id="path2518" /><path d="M2285.487,980.378   c1.238-0.96,2.318-4.366,2.668-5.899c-1.064,0.384-0.887,1.45-1.201,2.334C2286.509,978.057,2285.794,979.024,2285.487,980.378" id="path2520" /><path d="M2295.31,981.816   c-0.145,0.889-0.221,2.092,0.566,2.812c-1.457-0.082-1.563,4.254,0.738,3.112C2299.601,986.256,2297.321,983.253,2295.31,981.816" id="path2524" /><path d="M2299.849,985.486   c-0.488,0.327-0.496,1.002-0.229,1.521C2299.958,986.561,2300.034,986.054,2299.849,985.486" id="path2534" /><path d="M2299.741,984.268   c-0.635,0.393-0.52,0.632,0.344,0.72C2299.97,984.748,2299.856,984.507,2299.741,984.268" id="path2536" /><path d="M2300.757,984.407   C2301.425,981.801,2300.073,983.564,2300.757,984.407" id="path2538" /><path d="M2052.778,975.918   c0.16-0.975-1.293-2.094-1.994-1.149C2051.499,975.104,2051.845,976.279,2052.778,975.918" id="path2230" /><path d="M1998.726,878.282   c1.07,0.342,0.576-1.038-0.467-0.721C1998.415,877.803,1998.569,878.043,1998.726,878.282" id="path2202" /><path d="M2015.597,882.963   c-0.652,0.37-1.502,0.925-2.281,0.706c-0.742-0.209-0.92-0.891-1.771-0.912c-1.424-0.037-2.695,0.699-4.154,0.559   c-1.717-0.166-2.818-0.729-3.883-2.021c-0.793-0.963-3.059-2.306-4.377-1.413c-4.867,3.296,6.199,12.521,7.932,14.934   c0.658,0.92,1.59,0.956,2.635,1.147c1.729,0.317,2.223,2.257,2.973,3.534c0.578,0.98,1.729,3.44,2.764,3.884   c1.803,0.771,1.037,2.544,1.49,4.171c0.428,1.532,2.021,1.148,3.17,1.967c0.732,0.519,1.445,1.076,2.168,1.61   c0.898,0.657,1.826,1.332,2.611,2.14c1.105,1.134,0.055,1.258,0.395,2.517c0.408,1.51,1.064,2.964,1.482,4.488   c0.441,1.614,1.605,3.301,1.496,5.005c-0.115,1.797,1.273,0.693,1.961,1.501c1.121,1.32,2.764,1.014,3.076,3.171   c0.406,2.813,4.121,4.641,4.764,7.591c0.09,0.422-0.611,0.47-0.275,0.925c0.455,0.617,0.857,1.269,1.205,1.951   c0.787,1.548,2.416,3.582,2.482,5.338c0.064,1.697,0.027,2.775,1.078,4.249c0.793,1.108,2,1.891,2.666,3.085   c0.795,1.424,1.213,2.858,2.471,3.991c1.246,1.119,2.988,1.87,3.795,3.443c0.82,1.552,0.73,2.463,2.219,3.646   c1.512,1.196,2.865,2.563,4.316,3.829c1.256,1.095,2.477,2.129,3.961,2.883c1.479,0.752,1.695,1.311,2.469,2.597   c0.41,0.682,0.938,1.32,1.443,1.936c0.432,0.438,0.895,0.841,1.391,1.204c0.311,0.267-0.033,0.56,0.354,0.824   c0.273,0.188,2.818,3.309,2.754,1.657c-0.037-0.967-0.992-1.705-1.137-2.66c-0.201-1.343,1.99,0.391,2.254,0.613   c1.867,1.592,3.623,1.599,3.268-1.419c1.164,0.967,2.012,2.933,3.617,3.24c0.961,0.185,0.791-2.691,0.789-3.178   c-0.004-1.872,0.188-3.731,0.24-5.604c0.025-0.997,0.604-2.411,0.113-3.367c-0.377-0.737-0.637-1.158-0.438-1.952   c0.242-0.966,0.965-2.259,0.793-3.288c-0.129-0.765-0.988-0.798-0.842-1.83c0.16-0.896,0.709-1.681,1.154-2.452   c0.482-0.833,0.863-1.188,0.676-2.227c-0.182-0.986-0.992-0.585-1.551-1.165c-0.76-0.791-1.977-3.43-1.529-4.46   c-0.871-0.142-5.061-1.241-5.4-0.359c-0.133-0.259-0.254-0.521-0.363-0.789c-0.91,1.137-1.021,2.736-2.365,3.529   c0.393-0.588,2.219-2.586,0.42-2.601c0.971-0.396,2.125-1.244,1.959-2.438c-0.125-0.897-1.066-0.585-1.629-0.925   c-0.572-0.345-0.895-1.826-1.025-2.401c-0.389-1.688-0.799-3.291-1.02-5.021c-0.135-1.063-3.252-1.178-4.168-0.966   c-0.719,0.167-2.1-1.254-2.625-1.689c-0.893-0.736-0.541-2.284-0.926-3.33c0.4,0.481,0.998,0.574,1.512,0.209   c-0.207-0.833-1.014-0.942-1.732-1c0.584-0.042,1.014-0.455,1.154-1.011c-0.486-0.029-0.967,0.018-1.439,0.142   c0.85-0.248,1.35-1,1.969-1.563c0.479-0.433,1.73-0.306,2.02-0.792c0.479-0.803-1.295-2.545-1.758-3.063   c-1.281-1.437-2.23-1.315-3.699-0.27c-1.137,0.81-4.014,2.855-5.248,1.226c2.557,1.463,7.445-3.061,2.793-4.108   c-0.74-0.167-1.504,0.153-2.229-0.142c-0.824-0.333-1.176-1.266-1.842-1.792c-1.371-1.083-0.613-3.309-2.109-4.458   c-0.555-0.424-1.129-1.082-1.727-1.426c-0.635-0.365-1.479-0.053-2.182-0.418c-1.146-0.595-1.063-2.361-1.768-3.332   c-0.346-0.478-2.836-2.988-3.447-1.489c-0.459,1.116,0.859,2.541,1.002,3.627c-0.471-0.479-0.607-1.122-0.979-1.654   c-0.602-0.88-1.75-1.013-2.486-1.729c-1.221-1.188-1.287-3.085-2.447-4.318c-0.359,0.466-0.445,0.97-0.26,1.512   c-0.191-0.361-1.357-2.813-0.982-0.863c-0.777-0.931,0.467-2.089-0.732-2.889c-1.086-0.725-1.906-1.986-2.971-2.799   c-1.227-0.936-2.189-2.438-3.627-3.072c-0.51-0.227-1.063-0.345-1.568-0.58c-0.875-0.405-0.721-1.063-1.275-1.673   c-0.73-0.801-2.07-0.854-2.811-1.588c-0.932-0.924,0.398-2.541-0.6-3.378c-1.205-1.01-1.439-1.02-1.936-2.608   C2018.835,885.711,2016.628,883.915,2015.597,882.963" id="path2204" /><path d="M2017.183,923.066   c1.5,1.598,1.998-2.855,1.332-3.759c-0.785-1.063-2.041-3.071-3.277-3.606c-0.916-0.396-1.436,0.893-2.402,0.309   c0.158,1.343,1.352,2.333,1.932,3.489c0.359,0.717,1.189,0.965,1.609,1.628C2016.757,921.729,2016.829,922.453,2017.183,923.066" id="path2208" /><path d="M2014.351,910.682   c0.012-0.72-0.48-1.906-1.4-1.224C2013.479,909.793,2013.948,910.2,2014.351,910.682" id="path2210" /><path d="M2023.411,932.498   c0.188-0.639-0.064-1.268-0.588-1.66c-0.395,0.541-0.684,1.375-0.836,2.022C2021.784,933.729,2023.702,933.762,2023.411,932.498" id="path2212" /><path d="M2022.093,928.397   c0.381,1.067,0.949,2.047,1.523,3.021C2023.858,930.621,2023.218,928.269,2022.093,928.397" id="path2214" /><path d="M2023.839,914.354   c0.104-0.563-0.135-0.563-0.721,0C2023.358,914.354,2023.597,914.354,2023.839,914.354" id="path2216" /><path d="M2025.761,927.607   c-0.199-0.952-1.705-0.801-2.23-0.291C2024.2,927.762,2025.001,927.815,2025.761,927.607" id="path2218" /><path d="M2028.065,944.018   c2.986-0.422-1.691-6.247-1.619-7.631c-0.49,0.27-1.322,0.139-1.67,0.625c-0.496,0.701-0.811,2.051-0.275,2.803   C2025.517,941.236,2026.11,943.598,2028.065,944.018" id="path2220" /><path d="M2033.628,948.986   c-0.189-0.771-1.186-3.484-2.24-2.762C2030.222,947.023,2033.095,948.67,2033.628,948.986" id="path2222" /><path d="M2034.653,952.447   c0.229,0.854,1.223,0.459,1.525-0.085c0.449-0.811-1.041-2.032-1.617-2.364C2034.263,950.82,2034.804,951.614,2034.653,952.447" id="path2224" /><path d="M2038.052,957.268   c0.029-0.552-0.482-0.966-0.389-1.506c0.123-0.698,0.539-0.533,0.326-1.229c-0.152-0.507-0.781-2.075-1.555-1.783   C2035.282,953.187,2037.495,956.809,2038.052,957.268" id="path2226" /><path d="M2048.237,911.619   c-0.258-1.425-2.229-1.862-2.791-0.323c-0.287,0.856,0.262,2.078,1.209,2.268C2047.798,913.791,2047.829,912.279,2048.237,911.619" id="path2228" /><path d="M2053.583,915.361   c-1.074-0.454-2.311-0.391-3.324-1.008c-0.195,1.054,0.701,1.532,1.582,1.693c0.863,0.158,1.332,0.955,1.961,1.475   C2053.798,916.796,2053.862,916.057,2053.583,915.361" id="path2232" /><path d="M2053.733,918.025   c-0.443-0.748-1.094-1.589-2.02-1.729c-0.234,1.314-0.096,3.668,1.598,3.959C2053.575,919.532,2053.44,918.744,2053.733,918.025" id="path2234" /><path d="M2058.138,921.628   c-0.502-0.946-1.473-1.593-2.48-1.887c-0.563-0.163-1.074-0.968-1.439-1.038c-0.422-0.08-0.789,2.312-0.275,2.653   c1.186,0.792,2.891-0.021,4.061,0.989C2058.048,922.107,2058.093,921.867,2058.138,921.628" id="path2236" /><path d="M2059.007,921.048   c-0.311-1.234-4.236-3.62-3.688-1.438C2056.817,918.937,2057.478,921.532,2059.007,921.048" id="path2238" /><path d="M2060.024,923.357   c-0.105-0.514-0.422-0.804-0.941-0.871c-0.361,0.542-0.289,1.021,0.217,1.439C2059.563,923.768,2059.808,923.578,2060.024,923.357" id="path2240" /><path d="M2061.011,919.538   c-0.205-0.29-0.469-0.506-0.793-0.646C2060.132,919.498,2060.433,919.74,2061.011,919.538" id="path2242" /><path d="M2061.601,922.057   c-0.178-0.566-0.619-0.942-1.23-0.72c0.021,0.602,0.385,1.117,0.875,1.439C2061.362,922.538,2061.481,922.298,2061.601,922.057" id="path2244" /><path d="M2063.298,930.768   c-0.527-0.36-2.479-0.153-1.68,0.781C2062.106,932.122,2063.214,931.32,2063.298,930.768" id="path2248" /><path d="M2064.903,920.397   c0.203-0.753-0.061-0.896-0.791-0.431C2064.376,920.11,2064.64,920.254,2064.903,920.397" id="path2252" /><path d="M2066.476,918.603   c-0.523-1.201-1.51,0.163-1.506,0.878C2064.974,920.336,2066.587,919.423,2066.476,918.603" id="path2256" /><path d="M2066.708,921.557   c0.393-0.718,0.197-0.957-0.582-0.72C2066.321,921.078,2066.515,921.317,2066.708,921.557" id="path2258" /><path d="M2070.44,919.538   c-1.041-2.518-3.91-0.152-2.707,0.295c0.805,0.298,1.158-0.475,1.422,0.854C2069.419,922.023,2070.472,920.098,2070.44,919.538" id="path2262" /><path d="M2067.503,922.348   c-0.01-0.277-0.08-0.541-0.215-0.789C2067.36,921.82,2067.431,922.085,2067.503,922.348" id="path2264" /><path d="M2069.13,931.418   c-0.342,0.274-1.02,0.414-1.436,0.549c-0.799,0.259,0.553,1.838,0.648,2.262c0.051-0.721,0.418-0.946,1.008-0.5   C2069.542,932.869,2070.165,932.022,2069.13,931.418" id="path2266" /><path d="M2068.683,927.027   c-0.41,0.453-0.242,0.717,0.502,0.789C2069.017,927.554,2068.851,927.292,2068.683,927.027" id="path2268" /><path d="M2069.397,928.397   c0.107,0.515-0.791,2.404,0.295,2.267c0.607-0.078,0.975-0.409,1.582-0.103c0.623,0.314,1.15,0.818,1.887,0.426   C2072.774,930.381,2070.106,928.325,2069.397,928.397" id="path2270" /><path d="M2070.089,921.768   c-0.25-0.014-0.488,0.036-0.719,0.149C2069.61,921.867,2069.851,921.817,2070.089,921.768" id="path2272" /><path d="M2069.681,926.598   c-0.322,0.703,0.729,1.269,1.166,1.512C2070.478,927.589,2070.089,927.086,2069.681,926.598" id="path2274" /><path d="M2075.731,943.298   c0.85,1.158-1.289,1.683-1.719,2.45c0.887,0.716,1.563,1.301,2.748,0.864c0.799-0.293,2.127,0.391,2.359,1.21   c0.205,0.727,0.768,1.598,0.887,2.236c0.281,1.471-0.584,2.088,1.096,3.005c0.721,0.395,3.986,2.895,4.764,2.185   c0.773-0.707-0.418-1.035-0.656-1.619c-0.375-0.924,0.752-2.596,1.648-2.771c-1.143-0.688-2.705-0.354-3.758-1.222   c-0.969-0.799-1.318-2.776-1.217-3.954c0.059-0.7-0.426-2.962-0.896-3.535c-1.326-1.625-3.029,0.243-1.803,1.729   C2078.673,943.946,2075.821,940.03,2075.731,943.298" id="path2282" /><path d="M2086.798,953.527   c-0.215,0.07-0.432,0.14-0.646,0.209c0.15,0.598,0.604,0.855,1.15,0.512C2087.161,953.988,2086.993,953.749,2086.798,953.527" id="path2286" /><path d="M2091.839,952.878   c-0.336,0.121-0.625,0.312-0.869,0.569C2091.534,953.717,2091.862,953.501,2091.839,952.878" id="path2290" /><path d="M2093.618,950.566   c-0.947,0.967-1.164,2.639-1.055,3.914c0.115,1.361,2.137,2.079,1.795,0.627c0.594,0.039,1.486,1.685,2.07,1.104   c0.803-0.794,1.619-2.401,1.48-3.568C2097.71,950.937,2095.003,950.289,2093.618,950.566" id="path2292" /><path d="M2096.341,895.131   c0.617,0.103,1.168,0.455,1.549,0.938c-0.57-0.368-0.969-0.063-1.031,0.575c1.779,0.257,2.352-1.537,1.705-2.892   C2097.413,891.348,2095.815,893.256,2096.341,895.131" id="path2294" /><path d="M2101.077,943.298   c0.303,0.027,0.592-0.019,0.869-0.141C2101.644,943.13,2101.353,943.177,2101.077,943.298" id="path2298" /><path d="M2103.302,942.008   c-0.406-0.319-0.813-0.319-1.221,0c0.168,0.284,0.387,0.522,0.652,0.721C2102.952,942.51,2103.142,942.27,2103.302,942.008" id="path2302" /><path d="M2109.403,937.397   c-1.139-1.602-3.426,0.907-2.002,2.301C2108.077,939.021,2109.862,938.714,2109.403,937.397" id="path2306" /><path d="M2158.903,956.838   c-2.617-1.094-1.613,5.536-1.023,6.41c0.629-1.135,1.387-0.789,1.207-2.343C2158.944,959.688,2158.433,958.001,2158.903,956.838" id="path2324" /><path d="M2160.058,957.918   c-0.813,0.148-0.74,1.018-0.215,1.439C2159.958,958.885,2160.03,958.404,2160.058,957.918" id="path2326" /><path d="M2168.001,899.595   c-0.182,0.657,0.057,0.729,0.713,0.217C2168.476,899.738,2168.239,899.667,2168.001,899.595" id="path2332" /><path d="M2168.907,898.73   c-0.342,0.694,0.303,1.305,0.871,1.514C2169.851,899.595,2169.911,898.501,2168.907,898.73" id="path2334" /><path d="M2169.345,892.971   c-0.041,0.621,0.342,1.037,0.982,0.721C2170.274,893.112,2169.927,892.833,2169.345,892.971" id="path2336" /><path d="M2169.005,931.638   c-0.227,0.208-0.32,0.473-0.287,0.79C2168.812,932.165,2168.909,931.9,2169.005,931.638" id="path2338" /><path d="M2170.687,897.507   c0.006,0.518,0.258,0.854,0.75,1.009C2171.474,897.988,2171.169,897.646,2170.687,897.507" id="path2340" /><path d="M2176.517,908.379   c0.033,0.519,0.258,0.925,0.674,1.225C2176.989,909.182,2176.765,908.773,2176.517,908.379" id="path2344" /><path d="M2102.778,920.907   c0.932-0.626,0.293-1.281,0.49-2.125c0.256-1.095,1.846-1.166,2.01-2.413c-0.328,0.545-0.732,1.023-1.213,1.439   c-0.885-1.292,0.197-2.564,1.021-3.521c0.537-0.623,0.695-1.209,0.975-1.959c0.361-0.974,1.615-1.199,2.33-1.862   c-0.166,0.891-1.34,1.98,0.006,2.518c0.189,0.077,0.682,2.18,1.061,2.59c1.107,1.202,3.094,2.144,3.809,3.678   c0.275,0.593,1.502,1.106,2.092,1.412c1.104,0.569,2.652-0.558,3.602-0.979c1.887-0.844,3.689,0.271,5.701,0.074   c0.805-0.078,1.533-0.696,2.24-1.075c1.061-0.567,0.754-1.953,1.553-2.828c0.834-0.912,5.086-1.836,5.75-0.44   c0.635,1.326,4.525,2.593,5.764,1.826c1.068-0.662,1.297-1.717,2.754-1.216c0.717,0.247,1.283-0.34,1.896-0.585   c0.508-0.205,1.107,0.456,1.629,0.43c-0.287-1.386,2.639-4.403,1.863-5.299c-1.334-1.544,1.869-3.514,3.051-3.917   c-0.652-0.845-1.816-3.955,0.324-4.211c2.689-0.323,0.748-1.979,2.338-3.446c0.613-0.564-0.061-2.878,0.068-3.851   c0.119-0.899,0.396-2.04,0.832-2.852c0.379-0.698,1.105-1.03,1.314-1.843c1.398,0.527,1.74,0.809,3.275,0.159   c0.523-0.222,1.715,1.685,1.916-0.304c0.941,0.943,2.801,0.706,4.025,0.595c1.57-0.144,2.455,1.557,3.971,1.422   c-0.467,0.321-0.977,0.514-1.533,0.575c0.264,0.236,2.887,2.492,1.09,1.585c0.361,0.262,1.316,0.438,1.486,0.873   c0.172,0.438,0.143,0.872,0.668,1.069c-0.906,1.106-2.289,0.415-2.635-0.72c0.16,0.488,0.209,0.992,0.15,1.512   c-0.758-0.481-2.121-0.433-2.949-0.071c1.016,0.397,1.506,1.454,2.605,1.729c-0.307,0.565-0.484,1.814-1.426,1.367   c0.67,0.918,1.705,1.301,2.746,1.655c-0.916,1,0.775,1.099-0.631,1.296c0.482,0.02,0.936,0.14,1.355,0.359   c-1.443,0.391,0.316,1.203,0.834,1.871c0.592,0.766,1.107,1.601,1.586,2.441c0.602,1.06-0.834,3.143-2.072,3.104   c0.797,0.284,0.396,1.09,1.029,1.612c0.91,0.753,1.82,1.529,2.77,2.234c0.764,0.567,1.219,1.54,2.109,1.859   c1.195,0.43,2.039,1.644,2.832,2.573c0.336,0.393,1.201,0.084,0.602,1.03c-0.742,1.17-1.967,0.589-2.996,1.112   c-1.707,0.865-3.74-1.52-5.094-2.066c0.627,0.912,1.123,2.063-0.334,2.146c-1.324,0.073-1.732,2.093-2.064,3.085   c-0.889,2.649-1.309,5.687-1.137,8.448c0.379-0.438,0.857-0.679,1.438-0.72c-0.182,0.594-1.133,1.304-0.422,1.579   c-0.682,0.423-0.68,1.018,0.006,1.439c-0.936,0.264-1.969,1.382-2.23,0.069c-0.279,1.856-3.715,5.773-4.24,2.021   c-0.717,1.313,0.516,2.341-0.961,3.37c-0.682,0.474-0.34,1.213-0.814,1.811c-0.551,0.694-1.578,0.672-2.082,1.439   c2.26-0.859,1.523,2.29,0.443,3.101c0.563,0.55,1.703-0.212,2.178,0.356c0.457,0.553-0.451,2.689-0.789,3.173   c-0.398-0.467-0.879-0.585-1.441-0.358c1.424,1.227-0.414,5.152-1.426,3.159c-0.266,0.875,0.473,1.628,0.949,2.239   c-1.979,0.362-1.354,3.374-3.01,4.048c-1.789,0.74-3.572,1.97-5.389,2.792c-0.479,0.216-4.203,2.829-4.115,1.355   c0.053-0.895-0.104-1.875-0.109-2.786c-0.008-1.301-0.865-2.378-0.551-3.689c-1.457,1.434-2.459,0.894-1.445-1.08   c-0.656,1.122-2.123,1.845-1.803-0.141c-0.146,1.053-2.91,3.5-3.736,1.877c-0.281-0.562,0.49-0.992-0.049-1.582   c-0.992-1.083-2.035,0.879-2.336-0.585c0.332,1.666-1.822-1.3-2.031-2.021c0.021,1.508-1.596,3.188-2.875,3.842   c-1.33,0.683-2.506-1.236-3.795-0.304c-0.469,0.338-2.232,2.946-2.633,1.253c-0.438-2.063,0.252-3.904-0.854-5.94   c-0.854,2.232-1.158,1.192-2.811,1.146c-0.695-0.02-1.262,0.581-1.799,0.922c-1.021,0.647-1.693,0.068-2.727-0.119   c0.332-0.363,0.691-0.7,1.076-1.01c-0.836,0.126-1.104,1.208-2.016,1.079c0.371-2.19-1.832-0.977-2.732-0.289   c-1.057-1.311-0.227-3.482-0.695-4.993c-0.318-1.026-0.133-2.112-0.324-3.157c-0.164-0.881-1.545-1.589-1.457-2.359   c0.02-0.182,0.773-1.113,0.863-1.383c0.316-0.962,0.49-1.797-0.105-2.684c-0.406-0.605-0.494-1.26-0.84-1.841   c-0.424-0.708-1.32-0.971-1.275-1.943c-0.205,0.25-0.42,0.489-0.645,0.721c-0.771-1.474-1.576-0.118-2.621-0.748   c-0.592-0.355-0.221-1.015,0.039-1.417c0.26-0.405,1.229,0.063,1.563,0.075c-0.564-0.314-0.904-1.078-1.527-1.234   c-0.463-0.116-1.061-0.029-1.365-0.494c-0.428-0.652-0.689-3.31,0.643-2.512c-0.35-0.929-0.928-2.052,0.211-2.159   c-0.967-1.27-2.248-2.372-2.596-3.984C2102.81,923.667,2102.175,921.479,2102.778,920.907" id="path2554" /><path d="M2166.417,897.938   c0.029-0.168,0.059-0.336,0.09-0.505c0.764,0.11,1.467,0.428,2.129,0.793C2167.872,898.364,2167.12,898.187,2166.417,897.938" id="path2556" /><path d="M2169.946,892.395   c0.881-0.116,2.031-0.281,1.764,1.009C2170.866,893.578,2170.479,892.83,2169.946,892.395" id="path2558" /><path d="M2296.026,980.598   c0.088,0.595,0.357,1.099,0.814,1.512c-0.217-0.344,0-2.437,0.123-2.909c0.313-1.207-0.922-0.58-0.621-1.632   c1.012,0.492,1.545-1.117,1.924-1.7c0.646-1.001,1.709,1.146,1.729,1.688c0.055,1.422,0.055,2.947,0.061,4.368   c0.029,2.229-1.723,1.207-2.912,0.404C2298.741,984.076,2293.206,980.438,2296.026,980.598" id="path2564" /><path d="M2297.896,982.828   c0.313,0.196,1.354,1.418,0.76,1.71C2297.687,985.014,2296.845,983.078,2297.896,982.828" id="path2566" /></g><g class="map-country" data-country="Malaysia" id="group-my"><path d="M2035.788,872.811   c0.424-0.539,0.406-1.529,0.701-2.153c0.516-1.091,1.463,1.21,2.002,1.534c0.67,0.401,1.309,0.133,2.008,0.331   c0.656,0.187,0.66,0.962,0.984,1.439c0.639,0.945,2.422,0.748,1.816,2.594c-0.291,0.892-1.566,3.415,0.74,2.878   c1.035-0.239,1.342-1.942,2.537-2.13c0.996-0.155,1.313,1.773,2.248,1.417c0.756-0.289,2.02-3.471,2.031-4.254   c0.906,0.292,1.75,0.383,2.32,1.225c0.566,0.833,0.754,1.847,1.557,2.516c2,1.665,3.752,3.195,4.865,5.601   c1.123,2.429,1.898,4.888,1.666,7.669c-0.09,1.068-0.27,2.252-0.51,3.303c-0.34,1.488-0.074,1.602,0.328,2.939   c0.602,2.003-0.705,4.434,0.416,6.448c0.867,1.558,2.943,2.387,3.385,4.273c0.514,2.23,1.961,4.104,2.537,6.362   c0.77,3.031-2.67,1.37-1.102,0.271c-0.604,0.021-1.117-0.326-1.373-0.863c0.107,0.208,0.68,2.234-0.158,1.632   c-0.844-0.607-2.805,0.732-3.57,1.104c-0.82-2.642-4.035-3.368-5.959-4.991c-0.496-0.42-0.859-0.925-1.318-1.36   c-0.73-0.698-1.938-0.68-2.754-1.28c-0.822-0.604-2.117-1.896-2.553-2.769c-0.301-0.604-0.797-0.66-1.391-0.82   c-0.92-0.25-1.309-1.087-2.037-1.607c-0.695-0.496-0.543-0.633-0.141-1.175c0.451-0.604-0.072-1.837-0.307-2.403   c-0.729-1.778-2.686-3.004-3.348-4.804c-0.32-0.866-2.199-1.347-0.008-2.046c-1.283,0.184-2.477-2.477-2.105-3.412   c0.719-1.815-0.174-3.772-1.201-5.126c-0.906-1.189-0.516-4.931-0.445-6.438C2037.759,876.509,2036.505,874.764,2035.788,872.811" id="path4722" /><path d="M2169.946,892.395   c-0.035-0.265-0.072-0.528-0.107-0.792c0.699-0.061,1.248,0.353,1.771,0.721C2171.056,892.3,2170.501,892.323,2169.946,892.395" id="path2560" /><path d="M2121.128,906.795   c0.051,0.498,0.131,0.74,0.689,0.792c-0.352-0.997,0.211-2.28-0.748-3.023C2120.993,905.314,2121.202,906.044,2121.128,906.795" id="path4708" /><path d="M2150.659,882.747   c0.717,0.266,0.828,0.024,0.332-0.722C2150.882,882.266,2150.771,882.507,2150.659,882.747" id="path4710" /><path d="M2163.763,866.259   c0.447-0.245,0.754-0.604,0.926-1.08C2164.116,865.273,2163.698,865.651,2163.763,866.259" id="path4712" /><path d="M2165.542,865.322   c-0.273,0.473-0.273,0.928,0,1.367C2167.12,866.152,2166.597,864.29,2165.542,865.322" id="path4714" /><path d="M2167.384,870.723   c0.287,0.053,0.559-0.02,0.816-0.216C2167.929,870.578,2167.655,870.649,2167.384,870.723" id="path4716" /><path d="M2175.306,888.003   c0.4,0.439,0.877,0.513,1.432,0.216C2176.269,888.107,2175.792,888.037,2175.306,888.003" id="path4718" /><path d="M2078.312,903.843   c0.723-0.406,0.799-1.327-0.096-1.512C2078.333,902.825,2078.366,903.33,2078.312,903.843" id="path2284" /><path d="M2101.878,903.339   c0.242,0.201,0.508,0.201,0.791,0c-0.064-0.264-0.176-0.503-0.334-0.72C2102.183,902.858,2102.032,903.098,2101.878,903.339" id="path2300" /><path d="M2033.708,872.522   c-0.371,0.384-0.795,0.695-1.27,0.938C2033.138,874.943,2034.845,873.477,2033.708,872.522" id="path4700" /><path d="M2037.163,881.307   c-0.857-0.385-0.99,0.444-0.971,1.081C2036.233,883.73,2037.282,882.188,2037.163,881.307" id="path4704" /><path d="M2066.716,903.627   c-0.299,0.177-0.451,0.439-0.459,0.792C2067.081,904.568,2067.233,904.305,2066.716,903.627" id="path4706" /><path d="M2108.392,910.467   c-0.273,2.564,5.332,4.75,5.23,2.376c0.029,0.67,1.02,0.744,0.955,1.021c-0.197,0.848,1.422,1.213,2.02,1.434   c0.924,0.339,1.471-0.407,2.264,0.495c0.723,0.823,1.813,0.915,2.842,1.011c-0.721-0.982-2.25-0.124-2.635-1.594   c-0.248-0.953,0.488-1.752,1.322-0.926c-0.799-0.498-0.854-1.276-0.59-2.097c0.164-0.396,0.291-0.803,0.393-1.223   c0.252-1.005,0.766-0.612,1.396-1.218c-0.504,0.053-1.01,0.101-1.516,0.144c0.719-0.663,0.07-1.45,0.305-2.229   c0.75,0.006,1.4,0.393,2.143,0.432c-2.533-1.956,1.475-4.281,3.098-4.538c2.566-0.404,6.266-0.938,8.477-2.455   c1.91-1.311,2.072-4.003,3.781-5.487c2.188-1.901,3.482-4.094,3.75-6.959c1.506,0.045,1.775,0.811,2.279,2.02   c0.297,0.71,2.039,2.68,2.816,2.712c1.381,0.06,1.881-2.783,1.328-3.607c-1.246-1.857,0.41-2.61,1.473-3.715   c0.258,1.823-0.219,4.369,2.104,4.896c0.164-1.41-0.111-3.005-0.785-4.219c-0.842-1.552,0.869-0.637,1.457-1.084   c0.541-0.413,2.422-1.796,1.023-2.352c-2.109-0.838,0.096-2.438,0.818-3.363c-0.285,1.82,2.084-0.156,2.529-0.935   c0.68-1.188,0.953-2.535,1.582-3.744c0.357-0.688,0.736-0.354,1.123-0.794c0.469-0.53,0.893-1.434,1.393-2.053   c1.096-1.354,1.096-3.324,2.471-4.571c0.939,1.187-0.346,2.409,0.061,3.672c0.857-0.523,1.811-3.679,2.82-3.492   c0.068,0.014,2.188,5.601,2.697,3.063c0.066,1.043,1.979,1.501,1.762,2.753c-0.145,0.827-1.279,0.522-1.051,1.652   c0.27,1.322,0.078,1.66-1.254,2.146c0.842-0.466,1.682,0.054,2.453-0.372c0.629-0.347,1.012-1.22,1.85-0.858   c1.586,0.683-0.004,1.807-0.818,2.096c0.07,1.56,1.67,0.064,2.289-0.313c1.328-0.813,2.729,1.075,2.787,2.186   c0.939-0.935,2.34,0.719,2.656,1.438c0.768-0.969,2.729-0.219,2.688,0.932c-0.061,1.661-3.791,2.975-5.098,2.872   c-0.908-0.07-4.334-1.292-3.406,1.258c0.383,1.004,2.688,1.429,2.445,2.645c0.73-0.445,1.271,0.219,0.834,0.89   c-0.473,0.724-1.471,0.563-2.18,0.622c-2.271,0.183-3.234,0.761-5.096-0.862c-0.188,0.519,0.131,1.601-0.402,1.959   c-0.807,0.544-1.875-0.578-2.443-0.958c-1.686-1.128-4.109,0.636-5.6-0.856c-0.176,1.73-1.264,0.146-2.111,0.376   c-0.631,0.171-0.799-0.417-1.268,0.292c-0.523,0.793-1.242-0.311-1.813-0.523c-0.199,0.771-0.852,1.008-1.215,1.654   c-0.471,0.838-0.738,2.005-0.889,2.938c-0.119,0.737-0.26,1.612-0.064,2.34c0.305,1.133-0.121,1.27-0.402,2.329   c-0.453,1.695,0.025,2.488-1.912,2.527c-2.102,0.043-0.951,3.688-0.396,4.411c-1.182,0.402-4.383,2.373-3.049,3.917   c0.775,0.896-2.15,3.913-1.863,5.299c-1.201,0.062-1.215-0.776-2.453,0.01c-0.854,0.542-1.729-0.312-2.568,0.144   c-1.145,0.618-1.434,1.63-2.969,1.384c-1.012-0.163-3.1-0.874-3.65-1.81c-0.75-1.271-5.508-1.105-6.346,0.417   c-0.396,0.718-0.627,1.614-0.887,2.386c0.055-0.158-2.314,1.254-2.215,1.245c-0.697,0.055-1.396,0.154-2.088,0.25   c-0.826,0.113-1.521-0.52-2.383-0.573c-1.492-0.095-2.459,0.695-3.723,1.301c-1.732,0.827-1.797-0.581-3.213-0.951   c-0.436-0.112-1.42-1.27-1.84-1.642c-0.525-0.469-0.74-1.157-1.256-1.628c-0.51-0.463-1.158-0.421-1.504-1.094   c-0.318-0.614-0.154-2.145-0.807-2.506C2107.019,912.063,2108.196,911.54,2108.392,910.467" id="path4724" /><path d="M2183.444,888.291   c0.41-0.749,0.379-1.573,0.045-2.305C2183.528,886.753,2183.474,887.522,2183.444,888.291" id="path5822" /></g><g class="map-country" data-country="Singapore" id="group-sg"><path d="M2063.444,916.083   c-0.957,0.252,0.52,2.079,1.803,0.358C2064.677,916.171,2064.077,916.051,2063.444,916.083" id="sg-" /><path d="M2065.104,922.982c7.725,0,7.691-12.026-0.031-12.026   C2057.345,910.956,2057.378,922.982,2065.104,922.982" id="sg." /></g><g class="map-country" data-country="Thailand" id="group-th"><path d="M2021.897,857.619   c-0.432,1.207-0.287,2.515,0.098,3.672C2023.114,860.429,2023.101,858.294,2021.897,857.619" id="path3902" /><path d="M2023.661,858.266   c0.191,0.504,0.43,0.99,0.576,1.513C2024.31,859.164,2024.116,858.66,2023.661,858.266" id="path3904" /><path d="M2028.005,863.883   c-0.055-0.578-0.27-1.082-0.645-1.512C2027.392,862.96,2027.606,863.464,2028.005,863.883" id="path3906" /><path d="M2032.3,870.435   c-0.535,0.51-0.627,1.265,0.219,1.439C2032.45,871.394,2032.378,870.914,2032.3,870.435" id="path3908" /><path d="M2034.784,845.595   c-0.521,0.453-0.521,0.886,0.006,1.297C2035.298,846.442,2035.296,846.011,2034.784,845.595" id="path3910" /><path d="M2034.728,843.723   c-0.248,0.514,0.16,0.727,0.615,0.721C2035.161,844.184,2034.954,843.943,2034.728,843.723" id="path3912" /><path d="M2052.259,824.57   c0.236,0.022,0.473,0.049,0.709,0.07c0.061-0.582-0.266-1.047-0.754-1.296C2052.183,823.761,2052.198,824.169,2052.259,824.57" id="path3914" /><path d="M2054.315,826.73   c-0.279,0.562-0.199,1.041,0.236,1.439C2054.743,827.626,2054.663,827.146,2054.315,826.73" id="path3916" /><path d="M2014.519,767.619   c0.355,0.856,2.24,0.822,2.932,0.194c0.834-0.757-0.354-2.808-0.016-3.796c0.188-0.552,0.688-0.932,0.799-1.513   c0.172-0.899-0.486-1.482-0.1-2.441c0.244-0.61,1.676-2.681,2.088-2.604c1.209,0.227,2.348,0.754,3.66,0.479   c0.625-0.13,1.305-0.809,1.904-0.796c0.607,0.014,0.764,0.601,1.395-0.178c0.619-0.766-0.113-2.221,1.129-2.523   c0.895-0.217,4.078,0.438,2.646-1.802c1.268-0.062,4.971-2.249,4.563,0.434c0.717-0.188,1.078-1.156,1.852-0.92   c0.344,0.104,1.324,1.695,1.564,2.021c0.592,0.792-0.58,1.979-0.906,2.772c-0.459,1.118,0.199,1.991,0.924,2.653   c1.018,0.927,2.984-0.936,4.248-0.552c0.768,0.231,1.508,0.238,0.908,1.288c-0.576,1.011,0.639,2.461,0.668,3.397   c0.021,0.793-0.625,1.579-0.639,2.419c-0.01,1.117-1.092,1.694-1.152,2.635c-0.029,0.451,0.764,0.716,0.783,1.301   c0.033,0.975-0.014,1.834-0.486,2.758c-1.154,2.252-2.107,3.542,0.447,4.489c1.301-1.697,4.254-2.961,4.621-5.185   c1.152,0.73,1.482-1.256,2.434-1.273c0.656-0.013,1.391,1.247,1.953,1.54c0.439,0.229,1.512,0.312,1.742,0.783   c0.729,1.494,2.045-0.697,3.158-0.474c0.604,0.12,1.113-2.313,2.119-2.448c-1.49-1.855,3.609-0.652,4.158-0.498   c3.08,0.872,3.682,5.244,6.447,6.769c2.281,1.26,0.553,5.698,0.736,7.917c0.113,1.348,1.24,2.043,1.881,3.103   c1.029,1.698,1.602,1.691,3.438,2.438c-1.773,1.109,0.59,1.867,1.264,2.453c0.787,0.683-1.236,3.522-0.041,3.308   c-0.398,0.713-1.203,1.404-0.799,2.214c0.229,0.458,0.777,0.663,0.645,1.286c-0.365,1.718,0.119,3.413-1.734,4.479   c-1.236,0.71-2.033,2.195-2.742,0.597c-0.73-1.646-3.543-0.017-4.857-0.422c-0.912-0.28-1.857,0.059-2.805,0.188   c-1.014,0.139-1.406-0.472-2.277-0.542c-1.201-0.1-2.766,0.448-3.928,0.882c-1.832,0.685-2.201,2.747-3.25,4.139   c-0.484,0.646-1.625,1.178-1.625,1.993c0.002,0.861-1.092,0.545-1.635,0.525c0.396,1.467,0.455,3.054,0.865,4.544   c0.346,1.246,0.135,2.907,1.271,3.75c1.275,0.944,0.854,1.998,0.85,3.418c-0.004,1.739,1.783,3.159,1.359,4.921   c0.061-0.881-0.639-1.36-0.967-2.064c-0.496-1.063-0.303-2.398-1.717-2.832c-0.004,0.433-0.018,0.863-0.043,1.297   c-0.316-0.955-3.523-1.404-1.51-2.664c-0.553,0.311-0.891-0.021-1.043-0.505c-0.135,1.552-1.775-0.848-2.037-1.584   c-0.119,1.364-0.918-1.399-2.262-0.813c-0.654,0.286-1.338,0.817-2.078,0.668c-0.904-0.183-1.928-0.686-2.9-0.451   c-1.904,0.458-0.693-1.462-0.723-2.604c-0.016-0.668,0.021-1.346-0.014-2.012c-0.025-0.921,0.734-1.639,0.65-2.493   c-0.859,0.628-2.908,0.048-3.094-0.937c0.127,1.974-5.721,0.229-4.328,3.297c0.727,1.528,0.096,2.501-0.346,4.1   c-0.469,1.695,0.668,3.28,0.201,4.987c-0.186,0.678-0.734,1.188-1.123,1.758c-0.479,0.698-0.285,1.544-0.824,2.231   c-1.016,1.298-1.324,3.293-1.783,4.807c-0.559,1.847-0.941,3.179-1.859,4.873c-0.326,0.604,0.141,2.269-1.008,2.1   c1.229,1.573-0.305,4.486,0.43,6.391c0.35,0.904,0.902,1.508,0.4,2.428c-0.566,1.042,1.324,1.273,1.887,0.984   c1.982-1.018,3.17-1.038,3.33,1.574c0.053,0.861,0.963,7.038,2.316,5.04c0.676,1.756,0.701,3.708,1.191,5.521   c0.439,1.621,1.16,3.332,1.09,5.063c-1.188-0.219-1.156-5.458-2.5-4.554c-0.965,0.651,0.32,2.702,0.66,3.227   c0.404,0.623,0.896,1.104,1.424,1.61c0.439,0.423,1.125,0.262,1.557,0.684c0.996,0.979,1.145,2.004,2.869,2.054   c1.268,0.036,2.709-0.466,3.781,0.386c1.18,0.936,1.352,2.646,2.488,3.639c1.203,1.049,1.988,1.555,1.273,3.216   c-0.328,0.763-0.91,2.311-1.871,2.512c-0.738,0.154-0.822-1.037-1.367-1.257c-1.436-0.578-2.379,1.999-3.314,1.993   c-1.805-0.009-1.266-1.781-0.584-2.771c0.742-1.073-0.438-2.058-1.217-2.251c-1.105-0.274-0.578-1.866-2-2.06   c-1.311-0.176-2.072-0.229-2.861-1.333c-1.105-1.545-0.818,1.124-1.365,1.819c-0.008-2.04-5.02-3.954-2.869-6.12   c-1.771,1.029-0.947-1.644-1.768-2.159c0.035,1.05-0.84,0.826-1.189,0.188c-0.453-0.824-0.279-2.076-0.963-2.764   c-0.451-0.455-1.43,0.138-1.484-0.608c-0.051-0.68,0.104-0.93-0.271-1.496c-0.563-0.854-0.494-0.789-1.385-0.96   c-0.557-0.105-0.404-1.027-0.563-1.414c-0.256-0.627-0.533-1.594-1.447-1.368c-0.977,0.24-0.621,1.117-0.961,1.802   c-2.393-0.496-1.73-4.099-1.369-5.837c0.729-3.5,1.65-7.056,2.566-10.521c0.354-1.347,1.559-3.135,1.65-4.459   c0.109-1.556,0.727-1.646,1.439-3.03c0.898-1.745,5.898-6.427,4.502-8.348c-0.6-0.817-0.969-3.044-1.123-4.047   c-0.236-1.527-0.762-2.047-1.412-3.34c-0.375-0.743-1.188-2.83-0.973-3.643c0.561-1.962,0.629-3.391,0.027-5.277   c-0.982-3.07-3.844-4.927-5.547-7.553c-0.746-1.15-1.475-2.284-1.5-3.771c-0.018-0.836,0.438-2.759,1.545-1.664   c-0.154-1.019,1.039-0.8,1.365-1.515c0.465-1.013,0.07-3.383,0.027-4.471c-0.063-1.798,1.258-0.878,2.016-1.886   c0.484-0.646,0.664-2.043,0.074-2.57c-0.248,0.566-0.598,1.07-1.053,1.513c-1.057-1.503-1.213-3.26-1.533-5.039   c-0.205-1.134-1.775-2.255-2.479-3.137c-1.082-1.357-2.551-2.797-3.426-4.277c-0.484-0.82-0.131-1.594-0.307-2.479   c-0.158-0.799-0.947-1.434-0.668-2.348C2015.153,770.649,2014.708,768.685,2014.519,767.619" id="path3918" /></g><g class="map-country" data-country="Philippines" id="group-ph"><path d="M2225.827,819.675   c0.18,0.179,0.326,0.153,0.439-0.071C2226.12,819.627,2225.974,819.649,2225.827,819.675" id="path5902" /><path d="M2164.944,860.932   c0.527-0.783,0.588-1.705-0.152-2.305C2164.421,859.399,2164.472,860.263,2164.944,860.932" id="path5800" /><path d="M2176.563,868.131   c0.143-0.796-0.137-0.964-0.832-0.504C2175.991,867.822,2176.269,867.99,2176.563,868.131" id="path5806" /><path d="M2186.519,884.763   c0.467-0.254,3.166-1.666,3.064-1.99c-0.373-1.199-1.201-0.073-1.838,0.36C2186.962,883.67,2185.728,883.691,2186.519,884.763" id="path5832" /><path d="M2191.913,873.314   c-0.193,0.396-0.193,0.78-0.002,1.151C2192.286,874.053,2192.288,873.669,2191.913,873.314" id="path5838" /><path d="M2197.548,877.777   c2.039-0.983-0.99-1.938-1.949-1.764c-1.043,0.192-0.982,1.498-0.732,1.368C2195.556,877.023,2197.302,876.856,2197.548,877.777" id="path5840" /><path d="M2202.038,871.803   c0.088,0.87,0.887,1.36,1.729,0.986c0.859-0.381,0.859-1.284,1.43-1.923c-0.746,0.063-1.158-0.512-1.834-0.647   c-0.697-0.143-1.281,0.726-1.93,0.864C2201.606,871.348,2201.81,871.587,2202.038,871.803" id="path5858" /><path d="M2201.2,875.906   c0.176,0.559,0.525,0.727,1.051,0.504C2201.937,876.174,2201.587,876.006,2201.2,875.906" id="path5860" /><path d="M2209.435,865.467   C2212.171,864.417,2207.382,863.755,2209.435,865.467" id="path5874" /><path d="M2215.056,849.771   c1.252-0.063,0.799-1.202,0.336-1.801C2214.665,848.316,2214.163,849.353,2215.056,849.771" id="path5882" /><path d="M2216.319,845.883   c0.688-0.043,0.943-0.283,0.77-0.72C2216.528,845.117,2216.327,845.348,2216.319,845.883" id="path5888" /><path d="M2217.718,839.835   c0.207-0.24,0.414-0.479,0.619-0.721C2217.665,839.126,2217.749,839.31,2217.718,839.835" id="path5892" /><path d="M2224.153,849.915   c0.391-0.751-0.172-1.918-1.08-1.151C2223.198,849.318,2223.597,849.762,2224.153,849.915" id="path5900" /><path d="M2228.37,881.883   c0.223,0.131,0.465,0.155,0.725,0.072C2228.868,881.726,2228.626,881.701,2228.37,881.883" id="path5908" /><path d="M2231.817,868.851   c0.277-0.776,0.111-1.544,0-2.305C2230.55,866.797,2231.554,868.041,2231.817,868.851" id="path5910" /><path d="M2166.726,854.163   c-0.43,0.692-0.344,1.489-0.564,2.23c2.113-2.43,4.957-3.229,6.863-5.977c0.709-1.021,6.455-4.616,4.566-6.265   c1.156,0.289,0.402-0.517,0.518-1.226c0.141-0.863,1.545-0.982,2.154-1.063c1.045-0.136,1.271-0.537,1.502-1.486   c0.32-1.323,1.262-0.994,2.158-1.555c1.918-1.176,0.701-2.33,0.08-3.687c-0.746-1.628,0.963-3.854-0.266-5.242   c-0.961,0.765-0.184,3.678-1.346,2.521c0.252,0.603,0.922,2.289,0.924,2.952c-0.701-0.412-1.516-0.857-1.703-1.729   c-0.109,0.912,0.293,1.646,0.486,2.478c0.195,0.838-1.08,3.424-1.41,1.627c-0.127,0.56-0.443,0.742-0.957,0.881   c-0.398,0.105-0.254,1.22-0.379,1.496c-0.156,0.348-0.84-0.104-1.018,0.216c-0.283,0.508,0.365,0.859-0.088,1.438   c-0.086-1.694-0.928,0.267-1.209,0.724c-0.471,0.762-0.92,1.536-1.551,2.188c-0.998,1.031-1.57,2.44-2.719,3.342   c-0.457,0.357-0.943,0.191-1.398,0.516c-0.52,0.369-0.586,1.019-1.117,1.316C2168.743,850.713,2167.382,852.586,2166.726,854.163" id="path5802" /><path d="M2186.265,829.971   c0.287-0.762,0.037-0.904-0.75-0.432C2185.765,829.682,2186.015,829.826,2186.265,829.971" id="path5812" /><path d="M2187.556,822.339   c-0.197-0.22-0.418-0.411-0.666-0.576c-1.523,2.401,1.596,2.81,3.264,2.81c0.096-0.441-0.105-1.039-0.484-1.26   C2188.89,822.854,2188.349,823.054,2187.556,822.339" id="path5814" /><path d="M2188.343,808.658   c0.191,0.695,0.855,1.122,1.4,1.513C2189.897,809.28,2189.167,808.693,2188.343,808.658" id="path5816" /><path d="M2187.55,825.219   c-0.322,0.072-0.645,0.145-0.967,0.217c0.08,0.892,1.148,0.966,0.965,1.943C2188.267,826.79,2187.698,825.813,2187.55,825.219" id="path5818" /><path d="M2187.472,837.171   c0.031-1.258-1.73-0.093-1.803,0.72C2186.603,838.278,2186.558,837.04,2187.472,837.171" id="path5820" /><path d="M2190.007,811.971   c0.102,0.414,1.537,1.692,1.879,1.991c1.484,1.273,0.912,2.935,1.955,4.273c0.455,0.588,3.297,6.938,4.463,3.239   c0.246-0.784,0.799-1.448,1.035-2.232c0.23-0.777-0.432-1.471-0.352-2.25c0.195-1.859-0.621-3.017-1.719-4.271   C2196.384,811.705,2191.147,810.723,2190.007,811.971" id="path5824" /><path d="M2189.612,826.299   c0.027-0.511,0.006-1.016-0.064-1.512C2189.21,825.345,2189.231,825.848,2189.612,826.299" id="path5828" /><path d="M2186.126,788.857   c-0.551,1.593,0.771,1.392,0.813,2.294c0.063,1.384-0.068,3.162,0.473,4.381c0.52,1.175,0.732,2.204,0.77,3.517   c0.021,0.795,1.072,2.547,1.137,0.753c1.287,0.505,0.16,3.118,1.668,3.584c2.225,0.688,0.787-2.257,0.971-3.224   c0.559,0.212,5.146,1.771,3.109,3.086c-0.781,0.504-1.49,1.114-2.211,1.7c-1.156,0.938-0.354,2.794-0.412,3.997   c0.627-0.072,0.918-0.438,0.721-1.009c1.305,0.021,1.807,0.739,1.4,2.017c0.629-1.495,1.398-0.183,1.012,0.576   c0.762-0.122,1.795,0.334,2.494-0.276c0.596-0.521,0.85-1.317,1.512-1.768c0.205-0.14,1.408-0.97,1.646-0.759   c0.813,0.724,1.979,1.083,2.711,1.875c0.965,1.046,2.881,2.474,2.973,4.022c0.029,0.52,0.865,1.275,1.178,0.365   c0.057-0.49-0.018-0.949-0.215-1.379c-0.068-0.24-0.951-1.69-0.398-1.508c-1.061-0.724-0.547-2.272-1.229-3.239   c1.6-0.245,2.813,1.626,3.422,2.695c0.822,1.445,2.549,1.531,3.178,3.313c0.168,0.468-0.457,1.374,0.217,1.521   c0.729,0.158,1.301,0.687,1.949,1.012c0.52,0.262,0.914,1.016,1.572,0.688c0.48-0.236,1.229-0.925,1.783-0.807   c-0.211,0.884-1.893,1.278-1.291,2.308c0.109,0.187,1.258,2.115,1.719,1.163c0.717-1.479,0.699-6.611-2.332-4.693   c-0.248-0.608,0.127-1.017,0.064-1.609c-0.082-0.752-1.029-1.836-1.627-2.207c-1.592-0.985,2.186-1.95,3.063-1.439   c-0.018-1.061-1.689-1.486-2.553-1.565c-1.471-0.136-1.549-1.385-2.75-1.603c-0.447,1.002,1.242,2.461-0.416,3.023   c-1.213,0.411-1.176-2.343-1.57-3.2c-0.799-1.75-4.959-3.313-5.318-0.04c-0.137-0.298-0.289-0.586-0.457-0.863   c-1.104,0.899,0.814,1.464,0.168,2.095c-1.092,1.068-2.838-0.383-3.434-1.086c-0.533-0.631-2.59-5.142-0.602-5.257   c-1.623-1.237-2.998-4.798-1.902-6.841c0.748-1.394,0.207-2.661,0.881-3.888c0.844-1.519,2.914-1.619,4.113-2.736   c-0.18,0.409-0.357,0.817-0.539,1.226c1.018-0.985,0.906-2.144,1.48-3.312c0.877-1.779,1.98-3.689,1.916-5.616   c-1.082,0.473-0.422-0.909-0.684-1.369c-0.73-1.271-1.781-1.313-2.092-3.062c-0.313-1.795-0.068-3.186,0.932-4.872   c0.521-0.875-0.287-3.273-1.271-1.997c-0.391,0.508-0.605,1.625-1.455,1.47c-0.516-0.096-1.57-0.692-2.123-0.105   c-0.195-0.602-0.723-1.025-1.225-1.362c-1.012-0.675-2.309-1.688-3.68-1.26c-0.592,0.186-1.164-0.118-1.721-0.167   c-0.518-0.047-0.219,0.701-0.713,0.701c-1.406,0-0.629,0.765-0.77,1.584c-0.26,1.464-0.979,3.266-1.4,4.752   c-0.773,2.703,0.959,5.093-0.018,7.969c-0.791,2.332-0.063,4.072-0.053,6.243c0.021,2.69-3.627-0.897-3.762-2.044   C2185.966,787.08,2185.917,788.061,2186.126,788.857" id="path5808" /><path d="M2197.915,760.923   c0.246,0.49,0.648,0.803,1.211,0.937C2199.491,761.044,2198.681,760.483,2197.915,760.923" id="path5826" /><path d="M2197.675,765.387   c0.273-0.023,0.543-0.048,0.816-0.071C2198.104,765.132,2197.937,764.996,2197.675,765.387" id="path5830" /><path d="M2202.548,752.427   c0.301-0.353,0.518-0.734,0.65-1.151C2202.671,751.535,2202.454,751.92,2202.548,752.427" id="path5834" /><path d="M2201.659,765.603   c0.551-0.355,0.881-0.936,0.797-1.513C2201.927,764.504,2201.661,765.008,2201.659,765.603" id="path5836" /><path d="M2201.683,798.65   c0.117,0.885,0.354,2.579,1.275,2.951C2203.532,800.521,2203.694,797.072,2201.683,798.65" id="path5842" /><path d="M2204.294,807.291   c-0.1-0.876-1.191-1.484-1.943-1.729C2202.739,806.382,2203.573,806.802,2204.294,807.291" id="path5844" /><path d="M2201.46,812.114   c-0.246,1.616,2.143,2.827,2.51,0.518C2204.167,811.456,2202.017,810.816,2201.46,812.114" id="path5846" /><path d="M2204.915,801.098   c0.313-0.693,0.096-0.886-0.648-0.575C2204.483,800.715,2204.698,800.905,2204.915,801.098" id="path5848" /><path d="M2201.757,826.587   c2.307,0.414,1.551,2.229,1.318,4.02c-0.168,1.298-0.051,2.221-0.539,3.521c-0.508,1.354,0.148,2.645-0.473,3.98   c1.318,0.283,2.42-2.017,3.889-2.017c0.955,0,2.883-1.388,2.707-2.333c-0.156-0.828,2.932-1.137,2.645-2.316   c-0.383-1.564,0.971-3.723-1.75-1.9c0.691-0.674-0.143-1.585-0.9-1.421c-0.705,0.151-1.244,1.013-1.768,0.39   c-0.594-0.704-0.982-1.509-1.854-1.938c-0.82-0.402-1.916-0.572-2.398-1.423C2202.208,825.557,2201.917,826.037,2201.757,826.587" id="path5850" /><path d="M2202.997,820.251   c-0.236,1.3-0.893,2.404-0.008,3.526c0.332-1.479,0.607-2.963,1.07-4.41C2204.321,818.55,2202.409,819.067,2202.997,820.251" id="path5852" /><path d="M2205.452,801.459   c0.246-0.023,0.488-0.049,0.736-0.072C2205.942,801.345,2205.698,801.369,2205.452,801.459" id="path5854" /><path d="M2204.96,820.251   c0.619,0.094,0.57-0.146-0.146-0.721C2204.864,819.771,2204.911,820.011,2204.96,820.251" id="path5856" /><path d="M2202.368,866.547   c-0.5,2.035,2.244,2.894,2.605,0.515c0.133-0.866,0.658-3.261,1.34-3.523c0.541-0.209,1.119-3.364,2.268-2.437   c0.824,0.668,0.377,2.104,1.018,2.854c0.271-1.268,0.689-0.651,1.016,0c0.332-0.781,0.164-1.861,1.154-2.232   c0.398,0.521,0.275,1.146-0.252,1.584c0.992,0.036,1.539,1.262,2.539,1.08c-0.273-0.437-0.607-1.027-0.551-1.584   c0.033-0.315,0.73-0.279,0.83-0.575c0.268-0.779-0.611-0.598,0.443-1.354c0.648-0.464,1.207,0.353,1.658,0.646   c1.529,0.995,2.951,1.271,3.352,3.377c0.215,1.146-1.408,2.217-1.607,3.439c-0.201,1.224,0.352,2.908,0.531,4.115   c0.281,1.863,1.834,2.98,3.379,3.798c0.707,0.375,3.201,2.063,4.037,1.365c0.668-0.558,0.418-1.873,1.609-1.812   c0.119,0.006-0.59,5.562,1.188,4.39c1.234-0.813,2.445-3.611,2.352-4.977c-0.135-1.918-1.543-2.723-2.189-4.271   c-0.389-0.936,2.229-6.168,3.018-5.779c0.604,0.298,1.795,3.261,2.021,3.981c0.221,0.702,0.02,1.436,0.035,2.161   c0.021,1.06,0.836,1.767,0.926,2.796c0.107-1.673,1-3.841-0.172-5.257c0.643-0.289,1.125,0.081,1.332,0.648   c-1.012-0.95,0.641-1.902,1.209-2.614c1.102-1.375,0.521-3.385,0.346-4.855c-0.145-1.208-1.732-1.213-1.016-2.524   c0.416-0.761,0.572-2.718-0.836-2.102c2.457-1.985-1.758-2.633-1.637-3.673c0.07-0.607,1.277-0.892,1.549-1.488   c0.488-1.068-0.68-1.498-0.939-2.326c-0.121-0.392,0.436-2.26-0.314-1.886c-0.949,0.472-1.098,0.139-1.549-0.568   c-0.531-0.838,0.094-1.32-1.168-1.712c-1.387-0.432-1.563-1.705-2.766-2.242c-0.854,1.625,0.324,3.764,0.717,5.298   c0.09,0.352,0.521,1.646-0.135,1.83c-0.852,0.24-1.988,0.035-2.293-0.863c-0.816,2.121-0.102,2.292-2.006,0.91   c-1.795-1.301-0.494,3.827-2.063,4.041c-1.008,0.137-1.125-1.064-2.074-0.651c-0.984,0.432-0.832,2.184-1.188,3   c-0.424,0.981-1.834,0.544-2.586,1.124c-0.438,0.337-1.203,1.135-1.777,1.159c-0.59,0.025,0.791-0.916,0.668-0.836   c0.779-0.496,0.953-0.772,0.824-1.719c-0.1-0.733-0.885-4.268-2.221-2.563c-0.15-0.589-0.465-1.337-1.223-1.297   c0.297,1.98-2.143,1.221-2.793,2.297c-0.771,1.271-0.258,2.438-1.877,2.959c-1.639,0.526-3.982,0.067-4.869,2.097   c-0.381,0.87-0.24,1.879-0.398,2.782C2203.628,864.271,2202.929,865.466,2202.368,866.547" id="path5862" /><path d="M2206.913,820.251   c-0.281,0.164-0.543,0.355-0.785,0.575c0.566,0.487,1.15,0.959,1.652,1.513C2208.562,821.395,2208.083,820.244,2206.913,820.251" id="path5864" /><path d="M2207.433,846.818   c0.658,0.493,1.646,0.479,2.178,1.15c0.445,0.567,0.135,1.472,0.68,1.981c0.752,0.705,1.852-0.137,2.293-0.838   c0.822-1.306-0.48-2.193-0.758-3.334c-0.518-2.1,0.498-5.189,1.289-7.235c0.66-1.559,2.545-3.649,0.492-4.791   c-0.676-0.376-1.592-0.495-2.385-0.155c-1.361,0.585-0.938,1.712-1.379,2.779c-0.285,0.688-0.986,0.91-0.82,1.729   c0.211,0.909,0.543,1.903,0.115,2.856c-0.643,1.437-3.242,0.519-3.303,2.121C2205.784,844.427,2206.751,845.772,2207.433,846.818" id="path5866" /><path d="M2206.878,838.395   c0.678-0.292,2.414-2.283,1.074-2.618C2206.94,835.523,2206.429,837.858,2206.878,838.395" id="path5868" /><path d="M2213.323,818.595   c-0.691-1.34-1.459-3.163-2.93-3.815C2209.501,816.045,2212.837,817.766,2213.323,818.595" id="path5870" /><path d="M2211.894,824.57   c-0.053,0.265-0.104,0.526-0.154,0.791c1.094-0.692,2.145-3.42,3.227-1.995c0.439,0.578,0.93,1.114,1.307,1.737   c0.48,0.789,1.633,0.83,2.135,1.626c1.346-2.146-1.461-3.451-2.328-4.625c-0.387-0.522-1.018-1.102-1.494-1.52   c-0.285-0.251-1.924-1.063-2.297-1.056c0.193,0.688-0.217,2.505,0.043,2.909C2212.972,823.438,2212.081,823.488,2211.894,824.57" id="path5872" /><path d="M2215.614,820.251   c0.215,0.526,0.529,0.982,0.941,1.368c-0.043-0.973-0.188-2.162-1.096-2.664C2215.187,819.458,2215.239,819.891,2215.614,820.251" id="path5876" /><path d="M2213.606,841.923   c0.01,1.506-0.555,2.978-0.795,4.464c2.035,0.545,1.908-4.352,2.805-5.321c1.109-1.203,2.268-2.179,2.604-3.853   c0.428-1.993,0-3.956,0.273-5.945c-1.025,0.205-1.643,3.325-1.895,4.085C2215.837,837.653,2214.229,839.615,2213.606,841.923" id="path5878" /><path d="M2218.317,814.059   c0.188-0.492-0.041-0.59-0.688-0.288C2217.86,813.865,2218.089,813.963,2218.317,814.059" id="path5880" /><path d="M2219.765,811.467   c2.002-1.271,2.133-4.132-0.236-4.607C2218.61,808.337,2218.794,810.453,2219.765,811.467" id="path5884" /><path d="M2219.786,814.49   c-0.209-0.192-0.469-0.24-0.779-0.146C2219.267,814.395,2219.524,814.442,2219.786,814.49" id="path5886" /><path d="M2217.058,844.371   c-0.342,2.803,4.887-0.384,5.514-0.146c-0.305-1.444-0.176-4.291-2.818-3.583C2218.823,840.891,2215.853,843.574,2217.058,844.371" id="path5890" /><path d="M2220.327,820.251   c0.406,1.531,0.93,2.841,2.121,3.888c0.664,0.584,2.631,2.916,3.57,2.521c-0.383,0.713-0.451,1.658-1.377,1.942   c0.406,0.362,0.723,0.795,0.947,1.296c-0.682-0.844-1.246,0.229-1.914,0.593c-1.037,0.563-2.398-1-2.74-1.743   c-0.82,0.887,0.096,5.151,1.137,5.614c0.016-1.935,2.029,0.563,1.977,1.548c-0.135,2.514-0.719,4.446,1.879,5.652   c-0.064-0.76-0.414-1.451-0.369-2.23c0.393,0.469,1.863,0.508,2.059-0.29c0.105-0.442-0.762-2.532-0.982-2.979   c-0.506-1.03-0.709-0.896-0.658-2.273c0.029-0.894,0.379-2.298-0.336-2.952c0.617-0.154,2.141,1.494,2.158,1.477   c0.748-0.773,3.133,0.212,3.77,0.611c-0.479-0.64-0.76-1.536-1.613-1.8c1.232-0.867-0.773-3.424-0.766-4.453   c0.006-1.085,0.602-2.05,0.104-2.975c-0.318-0.59,1.102-0.418,0.021-1.108c-0.588-0.375-1.418-0.099-1.254-1.08   c0.211-1.263-0.887-1.308-1.775-1.505c-0.961-0.214-1.273-0.229-2.346,0.102C2222.704,820.482,2221.509,819.432,2220.327,820.251" id="path5894" /><path d="M2221.896,829.251   c1.26,0.187,0.643-2.776-1.025-1.872C2221.142,828.031,2221.241,828.854,2221.896,829.251" id="path5896" /><path d="M2227.269,841.923   c0.258,0.233,0.512,0.475,0.758,0.721c-0.104-0.684-0.361-1.826-1.35-1.513C2226.847,841.415,2227.046,841.679,2227.269,841.923" id="path5904" /><path d="M2230.161,841.923   c0.553,0.398,0.584,1.009,0.053,1.513c1.068,0.157,0.92-1.373,0.83-1.963c-0.094-0.618-0.453-1.164-0.518-1.781   c-0.061-0.563,0.35-1.015,0.184-1.584c-1.477,0.605-0.414,1.813-1.271,2.735C2230.007,840.936,2230.366,841.313,2230.161,841.923" id="path5906" /><path d="M2233.028,845.738   c0.527-0.511,0.227-1.193-0.264-1.513C2232.646,844.778,2232.731,845.282,2233.028,845.738" id="path5912" /><path d="M2233.708,841.923   c-0.393,0.483-0.84,2.521,0.33,2.261C2235.224,843.917,2234.478,842.066,2233.708,841.923" id="path5914" /><path d="M2220.503,836.883   c-0.021-0.264-0.045-0.527-0.066-0.792C2221.245,836.211,2221.267,836.475,2220.503,836.883" id="path5920" /><path d="M2225.589,829.898   c0.096,0.3,0.111,0.61,0.049,0.938C2225.524,830.539,2225.507,830.227,2225.589,829.898" id="path5924" /><path d="M2215.05,832.994   C2214.817,830.182,2218.511,831.628,2215.05,832.994" id="path5936" /></g><g class="map-country" data-country="Viet Nam" id="group-vn"><path d="M2081.351,844.083   c0.197,0.768,0.607,1.553,1.42,1.8C2082.216,845.355,2081.718,844.76,2081.351,844.083" id="path3474" /><path d="M2086.491,836.163   c0.096,0.787-0.529,1.579,0.234,2.159C2087.163,837.563,2086.985,836.755,2086.491,836.163" id="path3476" /><path d="M2087.599,837.459   c-0.082,0.237-0.104,0.479-0.064,0.72C2087.556,837.938,2087.577,837.698,2087.599,837.459" id="path3478" /><path d="M2106.032,819.098   c0.086,0.34,0.305,0.556,0.652,0.648C2106.466,819.53,2106.249,819.314,2106.032,819.098" id="path3480" /><path d="M2051.243,734.643   c1.367,0.063,1.389-1.896,2.027-2.672c1.041-1.26,3.035,0.699,3.584,1.333c0.979,1.134,1.973,0.2,2.873-0.993   c1.24-1.643,1.451-0.102,2.072,0.748c0.381-0.636,0.611-2.188,1.471-1.194c0.531,0.613,0.994,1.368,1.678,1.835   c0.428,0.292,1.236-2.749,2.576-2.801c-0.701,2.02,3.426,0.193,4.146-0.421c0.891-0.761,0.059-1.278,0.334-1.942   c0.445-1.082,2.844-1.188,3.568-2.388c0.854,1.476,2.049,2.638,3.594,3.425c1.207,0.617,2.602-0.563,3.365,0.566   c0.766,1.135,2.521-0.626,3.492,0.502c0.492,0.573,0.826,2.896-0.715,2.347c-0.328,1.968,0.504,3.412,0.818,5.327   c0.66-0.489,2.699,0.176,2.563,1.008c-0.205,1.247,2.293,0.969,2.434,2.161c0.27-0.145,0.539-0.288,0.807-0.434   c0.23,1.02,1.049,0.259,1.955,0.002c1.137-0.32,1.848,0.872,2.514,1.438c-1.008,0.758-0.967-0.684-1.99,0.052   c-0.93,0.666-1.348,1.614-2.477,1.782c-1.211,0.181-0.449,1.235-1.004,2c-0.539,0.745-3.039,1.467-1.629,0.126   c-0.74-0.183-1.949,0.965-2.055,1.368c-0.59-0.354-0.656-1.538-1.643-1.226c0.242,0.309,0.543,0.548,0.906,0.721   c-0.766,0.743-0.336,1.111,0.031,1.901c0.305,0.658-1.174,0.64-1.428,0.475c0.225,0.682,0.109,2.588-0.715,3.098   c0.094,0.031,0.191,0.031,0.295,0c-0.166,0.545-2.842,2.994-3.238,2.376c-1.33,0.604-2.012,2.421-2.32,3.629   c-0.428,1.667,0.107,2.796-1.014,4.363c-1.273,1.778,0.59,2.185,0.443,3.813c0.613-1.125,0.625,0.571,1.021,1.185   c0.535,0.824,1.195,1.463,1.98,2.054c0.748,0.563,1.504,1.146,2.15,1.816c0.93,0.964,0.342,2.001,0.549,3.228   c-0.408-0.347-0.895-0.538-1.461-0.576c1.785,0.306,2.371,2.548,3.656,3.675c0.938,0.821,4.035,2.423,2.967,4.174   c1.193-0.635,2.691,1.566,3.227,2.231c-0.293-0.141-0.596-0.261-0.906-0.359c1.258,0.838,2.387,1.759,3.117,3.097   c1.391-1.436,3.436,1.785,2.668,2.521c0.695-0.444-0.121-1.832,1.096-1.152c-2.162,1.663,3.369,5.51,3.303,6.984   c0.646-1.252,0.75-0.207,1.078,0.367c0.516,0.898-0.395,0.529-0.32,1.217c0.141,1.274,1.051,2.411,1.42,3.603   c0.5,1.614,0.65,3.365,1.189,4.987c0.217,0.652,0.455,1.313,0.531,2.018c0.037,0.344-0.15,2.157-0.396,0.408   c-0.145,0.976,0.672,3.807-0.252,2.089c0.188,0.579,0.488,1.083,0.906,1.513c-1.373,0.185-0.365,0.854-0.244,1.613   c0.189,1.102,0.473,1.844,0.969,2.82c0.203,0.397,0.035,2.376-0.107,2.98c-0.369-0.408-0.613-0.89-0.73-1.439   c-1.443,0.797-0.313,2.447,0.047,3.385c-0.428-0.266-0.895-0.458-1.396-0.576c0.596,0.586,0.965,3.662,0.523,4.535   c0.041-0.521-0.059-1-0.299-1.438c0.387,0.716-0.066,1.456-0.352,2.159c0.818-0.021,0.807,0.569,0.533,1.187   c-0.291,0.656-1.287,0.971-1.369,1.189c-0.504,1.352,0.023,1.391-1.525,2.146c-0.449,0.354-0.92,0.677-1.41,0.965   c-0.67,0.263-0.959,1.19-1.465,1.338c-0.84,0.245-1.711,0.593-2.469,1.06c-0.355,0.218-1.01,1.832-1.258,1.744   c-0.713-0.249-2.029,0.657-2.625,1.075c-0.805,0.565-2.34,1.063-2.947,1.755c-0.428-0.987-1.773-0.956-1.752-2.231   c-0.143,0.505-0.283,1.009-0.43,1.513c-0.078-0.405-0.211-0.79-0.396-1.15c0.299,0.832,0.18,0.784-0.359-0.146   c0.814,0-0.764-0.508-0.748-0.504c0.17,0.874-0.287,1.994-1.383,1.729c0.197,0.806,1.467-0.417,1.635,0.721   c0.264,1.45-2.299,0.739-2.818,0.72c0.859,0.729,2.35,0.587,2.869,1.729c-0.879,0.133-1.004,1.503-1.969,0.806   c-0.641-0.463-1.006-1.855-1.877-1.957c0.525,0.654,3.193,2.954,2.693,3.672c-1.74-0.721-2.58-2.479-3.994-3.6   c0.256,1.151,5.363,4.694,2.916,5.985c-1.605,0.851-4.027-3.282-5.123-3.972c0.703,1.263,3.451,3.212,2.873,4.894   c-0.447,1.3-2.684,1.654-3.762,2.179c-1.818,0.883-1.949,2.201-3.107,3.61c-0.789,0.961-2.793,2.556-3.947,1.413   c0.395-0.47,0.895-0.758,1.49-0.863c-0.119-0.3-0.199-0.611-0.24-0.938c-0.314,0.143-0.635,0.263-0.963,0.36   c0.145-1.815-0.137-3.617-0.055-5.435c0.043-0.895,0.154-1.812,0.484-2.666c0.221-0.576,1.631-3.021,1.805-1.262   c0.145-2.827-5.293-2.415-4.654-4.823c-0.129,0.427-0.32,0.402-0.576-0.071c0.498-0.166,0.867-0.938,1.412-0.938   c0.578,0,1.213,0.156,1.789-0.104c0.48-0.221,1.061-0.896,1.404-1.293c0.666-0.765-0.357-1.524,0.436-2.272   c1.256,1.313,3.307-0.11,4.814-0.399c0.525-0.102,0.777,0.347,0.979,0.726c0.482,0.915,1.596,0.828,2.473,1.115   c0.092-0.787-0.678-1.445,0.285-1.584c-0.064-1.33-1.73-1.38-2.195-2.303c-0.396-0.787-0.619-1.8-0.73-2.69   c-0.105-0.847,0.797-0.943,1.279-1.598c0.736-0.996,2.756,0.454,3.564,0.613c-0.385-0.836,0.301-1.822-0.268-2.592   c0.715-0.175,1.457,0.183,2.168-0.113c0.604-0.251,1.844-1.017,2.439-1.405c0.691-0.453,0.893-1.1,1.738-1.334   c0.656-0.182,1.508-0.109,2.068-0.594c1.508-1.301-0.289-4.871,0.039-6.536c0.301-1.427,0.957-2.448,0.408-3.829   c-0.184-0.424-0.371-0.846-0.559-1.267c-0.314-0.753,0-1.289-0.203-1.984c-0.289-0.983-0.855-0.895-0.801-2.205   c0.068-1.586,1.199-2.515,1.457-3.918c0.063-0.338,0.275-2.104,0.102-2.267c-1.094-0.999,0.031-0.752,0.613-1.796   c0.898-1.609-0.846-3.196-1.926-3.941c-0.496-0.343-1.793-1.067-1.631-1.855c0.191-0.941,1.828-1.326,2.303-2.16   c-0.971-0.382-2.193-1.165-2.734-2.051c-0.402-0.658-0.926-0.111-1.35-1.014c-0.574-1.216-1.115-0.084-1.945-0.607   c-0.482-0.307-0.92-1.607-0.947-2.186c-0.088-1.818-0.662-3.372-2.014-4.653c-0.381-0.362-1.318-0.604-1.84-1.221   c-0.979-1.165-2.184-2.347-2.973-3.648c-0.508-0.838-0.645-1.866-1.186-2.685c-0.215-0.323-0.594-0.711-1.061-0.369   c-0.365-0.679-1.17-0.915-1.508-1.612c-0.25-0.515-0.986-1.728-0.328-2.301c0.834-0.72-2.506-1.418-2.727-1.47   c-2.219-0.518-3.387-3.111-5.473-3.7c-0.604-0.17-2.182-0.955-0.717-1.588c2.08-0.897-0.283-1.429,0.215-2.433   c0.268-0.54,2.787,0.254,3.043,0.293c1.049,0.16,4.232-1.596,2.793-2.021c0.404-0.489,1.43-0.747,1.537-1.44   c0.137-0.875-0.729-1.66-1.613-1.549c-0.6,0.075-0.613-0.299-0.709-0.782c-0.213-1.066-1.381-0.778-2.189-1.125   c0.318-0.759,1.42-0.609,1.578-1.241c0.271-1.069-0.871-1.476-1.502-1.979c-0.756-0.604-1.215-1.325-2.436-1.113   c-1.898,0.329-1.637,1.298-2.631,2.392c-0.746-0.493-1.813-1.429-2.742-1.258c-1.057,0.195-2.699-1.612-3.09-2.344   c-0.445-0.829-0.66-2.813-0.213-3.805c0.789-1.758-0.756-1.373-0.904-2.747c0.139,0.563-0.041,1.067-0.531,1.512   c-0.92-0.286-0.877-1.962-1.609-2.606C2053.241,737.494,2051.624,735.943,2051.243,734.643" id="path3562" /><path d="M2086.978,748.106   c0.15-0.346,0.043-0.585-0.322-0.721C2086.763,747.627,2086.87,747.865,2086.978,748.106" id="path5494" /><path d="M2087.63,748.179   c0.248,0.448,0.611,0.784,1.084,1.009C2089.472,748.264,2088.315,748.013,2087.63,748.179" id="path5496" /><path d="M2091.911,744.361   c-0.309,0.633-0.533,1.281-0.68,1.943C2092.073,745.859,2093.081,744.867,2091.911,744.361" id="path5498" /><path d="M2092.606,746.45   c-0.428,0.324-0.785,0.708-1.07,1.151C2092.099,747.435,2092.536,747.022,2092.606,746.45" id="path5500" /><path d="M2095.003,743.427   c0.234,0.118,0.488,0.07,0.758-0.145C2095.509,743.331,2095.255,743.379,2095.003,743.427" id="path5502" /></g><g class="map-country" data-country="Myanmar" id="group-mm"><path d="M1979.688,751.563   c-0.102,0.371,0.031,0.636,0.402,0.792C1979.958,752.091,1979.823,751.825,1979.688,751.563" id="path4568" /><path d="M1980.78,755.379   c0.271,0.479,0.5,0.982,0.678,1.513c-0.102-0.819-0.348-1.62-0.875-2.23C1980.647,754.898,1980.714,755.139,1980.78,755.379" id="path4570" /><path d="M1984.466,755.811   c-0.336,0.577,0.332,1.229,0.668,1.513C1985.196,756.708,1984.907,756.171,1984.466,755.811" id="path4572" /><path d="M1986.048,765.025   c-0.402,0.021-0.785,0.142-1.146,0.359C1986.938,768.076,1987.36,764.976,1986.048,765.025" id="path4574" /><path d="M1988.604,760.851   c-0.311-0.848-1.367-0.878-1.836-1.584C1985.56,760.332,1987.417,762.316,1988.604,760.851" id="path4576" /><path d="M1993.978,787.851   c-0.547,0.53-2.521,2.197-1.561,2.951C1993.247,790.023,1994.438,789.041,1993.978,787.851" id="path4578" /><path d="M1995.354,790.658   c-0.23,0.343-0.377,0.237-0.072,0.721C1995.306,791.139,1995.331,790.898,1995.354,790.658" id="path4580" /><path d="M2015.946,785.619   c-0.414,0.172-0.713,1.729-0.209,1.729C2016.724,787.348,2016.872,785.739,2015.946,785.619" id="path4582" /><path d="M2019.345,822.051   c0.229-0.225,0.371-0.486,0.428-0.792C2018.923,821.117,2018.78,821.382,2019.345,822.051" id="path4584" /><path d="M2019.839,827.522   c0.068-0.543-0.063-1.021-0.395-1.438C2019.612,826.55,2019.743,827.029,2019.839,827.522" id="path4586" /><path d="M2019.979,823.131   c0.145,0,0.287,0,0.434,0c-0.16-0.292-0.355-0.558-0.588-0.792C2019.876,822.603,2019.929,822.866,2019.979,823.131" id="path4588" /><path d="M2021.575,816.146   c0.506-0.575,0.301-1.168-0.314-1.438C2021.36,815.188,2021.466,815.668,2021.575,816.146" id="path4590" /><path d="M2021.548,835.658   c-0.025-0.843-0.375-1.612-1.053-2.088c-0.207,0.215-0.369,0.454-0.492,0.721C2021.032,833.813,2021.302,835.005,2021.548,835.658" id="path4592" /><path d="M2020.706,829.322   c1.225-0.083,1.289-2.276,0.816-2.951C2021.194,827.342,2020.921,828.331,2020.706,829.322" id="path4594" /><path d="M2021.864,821.402   c0.328,0.524,2.234-2.688-0.105-2.231C2021.839,819.907,2022.083,820.637,2021.864,821.402" id="path4596" /><path d="M2020.646,841.923   c0.035,0.24,0.068,0.479,0.104,0.721c0.465-0.286,0.703-0.694,0.715-1.225C2021.175,841.561,2020.903,841.729,2020.646,841.923" id="path4598" /><path d="M2022.63,827.955   c0.135,0.416,0.43,0.632,0.883,0.646C2024.067,826.263,2021.483,825.817,2022.63,827.955" id="path4600" /><path d="M2022.829,824.57   c0.172,0.334,0.338,0.67,0.5,1.008c0.299-0.168,0.559-0.385,0.779-0.646c-0.564-0.227-1.02-0.587-1.359-1.08   C2022.776,824.091,2022.804,824.331,2022.829,824.57" id="path4602" /><path d="M2023.058,820.971   c0.18-0.386,0.412-0.242,0.139-0.792C2023.149,820.441,2023.104,820.707,2023.058,820.971" id="path4604" /><path d="M1975.132,745.083   c0.148-0.555,0.225-1.955,1.072-2.048c1.053-0.113,1.508,1.418,2.586,1.111c-0.369-1.286-0.561-2.645-0.506-4.033   c0.111-0.571,0.129-1.133,0.051-1.686c-0.145-0.534,0.801-1.083,0.752-1.697c0.713,0.262,0.91,1.814,1.877,1.529   c0.693-0.203,0.568-1.479,0.762-1.963c1.42,0.881,1.07-1.338,0.879-1.999c-0.535-1.859-0.172-3.305-0.156-5.272   c1.365,1.104,1.742-1.167,1.846-2.104c0.256-2.308,0.088-4.292-0.416-6.465c0.359-0.025,0.656,0.074,0.896,0.299   c0.635,0.458,0.637,0.123,1.498-0.021c0.855-0.146,3.209,0.876,3.789,1.38c0.463-3.304,6.037-9.192,3.799-11.767   c-1.189-1.364,2.066-3.268,2.598-4.632c0.613-1.589,1.25-2.508,0.65-3.915c-0.492-1.157-0.357-3.383,1.078-4.239   c0.443-0.268,1.613,0.086,1.813-0.605c0.207-0.646,1.631-1.075,2.248-1.55c0.781-0.6,1.268-1.21,1.867-1.961   c1.016-1.276,2.891-1.091,4.219-1.282c0.639-0.093,1.484-0.512,1.92-0.007c0.586,0.682,0.994,2.271,2.461,1.732   c0.035-1.105-0.969-1.641-1.486-2.429c-0.947-1.44,0.143-2.551,1.52-3.647c1.979-1.574,1.143-1.258,1.52-2.958   c0.133-0.604,0.967-0.835,1.031-1.394c0.08-0.692,0.512-1.343,0.688-2.026c1.063,1.495,3.811,1.737,4.514,3.648   c0.256,0.692-0.063,1.548,0.143,2.255c0.279,0.958,0.828,1.777,1.105,2.735c0.623-0.198,1.039-0.648,0.863-1.226   c2.775,1.389,2.156,4.471,2.334,7.425c0.117,1.457,0.207,2.686-0.275,4.188c-0.197,0.616,0.623,2.688-0.914,2.067   c0.15,0.624,1.877,3.043-0.125,2.433c-0.357-0.108-1.275,1.448-1.26,1.743c0.053,0.939-1.125,0.324-1.625,0.289   c-0.238,0.529-0.986,4.479-2.477,2.952c-0.141,1.332-1.018,2.328-0.42,3.601c-1.395,0.104-1.543,1.074-1.652,2.126   c-0.113,1.09,0.797,1.104,1.053,1.946c0.111,0.368,0.564,1.389,0.328,1.803c-0.412,0.72-1.705,1.747-0.869,2.473   c0.389,0.338,3.207-1.608,3.674-1.845c2.025-1.021,3.988,0.619,5.988-0.67c0.104,1.125-1.471,1.567-1.254,2.687   c0.121,0.634,0.51,0.949,0.883,1.418c0.471,0.591-0.322,1.251,0.02,1.578c0.92,0.882,0.275,2.517,1.535,3.193   c1.719,0.923,3.396-0.244,3.82,1.924c-1.893-0.074-1.189,2.162-1.209,3.172c-0.02,1.063-2.65,3.149-0.779,3.766   c1.273,0.419,4.234-0.45,5.203,0.552c1.059,1.097-0.975,3.208,1.488,3.239c-0.412,0.503-0.287,1.427-0.002,1.854   c0.467,0.692,1.234-0.814,1.953-0.313c1.48,1.036,4.008-1.498,5.391-2.402c-0.104,1.255,0.768,1.957-0.582,3.002   c-0.623,0.481-1.928,0.758-2.332,1.313c-0.314,0.437-2.445,4.191-0.813,3.316c-0.275,1.069-1.936,0.53-2.646,1.009   c-1.24,0.834-1.107,2.505-1.574,3.672c-1.271-1.435-2.689,0.2-4.514,0.288c0.389,0.605,0.234,1.61-0.619,1.964   c-0.842,0.351-1.207-0.466-1.951-0.407c-0.928,0.075-0.998,2.034-1.252,2.624c-0.283,0.661-0.664,0.582-1.1,0.262   c-0.43-0.315-1.852,1.063-2.543,0.995c-0.348-0.034-3.729-0.532-3.715-0.623c-0.17,1.169-1.236,1.951-1.717,3.116   c-0.236,0.57,0.104,1.257,0.156,1.79c0.074,0.717-0.76,1.476-0.959,2.19c-0.258,0.933,1.037,2.015,0.26,2.981   c-0.688,0.874-2.563,1.129-2.998,0.084c0.189,1.064,0.635,3.03,2.197,2.592c-0.209,0.68,0.191,1.224,0.455,1.76   c0.393,0.8,0.037,1.595,0.246,2.417c0.357,1.423,2.234,3.118,3.139,4.236c0.555,0.685,1.125,1.354,1.549,2.135   c0.387,0.715,1.283,0.559,1.488,1.691c0.322,1.78,0.477,3.537,1.535,5.041c0.453-0.441,0.805-0.945,1.053-1.514   c0.836,0.749,0.334,2.267-0.559,2.952c-1.184,0.911-1.686-0.035-1.512,1.848c0.104,1.069,0.156,2.771-0.074,3.846   c-0.184,0.854-1.494,0.788-1.342,1.796c-0.637-0.629-1.25-0.139-1.488,0.63c-0.34,1.099,0.113,2.488,0.541,3.426   c1.143,2.511,3.525,4.292,5.246,6.339c1.617,1.929,1.668,4.541,1.643,7.03c0.004,1.149-0.697,1.013-0.252,2.309   c0.422,1.229,0.438,1.933,1.348,2.9c0.854,0.91,0.609,1.932,0.895,3.07c0.295,1.155,0.938,2.133,1.178,3.317   c0.342,1.692-1.455,3.967-2.355,5.508c-0.943,1.61-2.127,3.473-3.531,4.558c-0.975,0.754-0.043,1.603-0.561,2.485   c-0.732,1.301-0.922,2.78-1.756,4.075c-0.797-1.354-0.258-3.344-0.504-4.862c-0.096-0.62-0.387-1.155,0.266-1.537   c0.795-0.467,0.24-0.744,0.652-1.322c0.885-1.245,1.18-2.736,1.002-4.197c-0.084-0.691-0.32-2.989,0.938-2.984   c-0.172-0.333-0.238-0.692-0.201-1.08c-0.391,0.482-0.934,0.858-1.531,1.009c-0.096-1.028,1.377-1.589-0.104-1.439   c1.744-0.794-0.607-2.05,0.818-2.809c-0.615,0.157-1.096-0.151-1.248-0.721c0.4-0.06,0.775-0.202,1.123-0.434   c-0.627-0.353-1.018-1.133,0.043-1.367c-0.869-0.295-0.258-1.158-0.326-1.959c-0.115-1.33-0.506-2.728-0.918-3.973   c-0.406-1.31-1.072-2.563-1.576-3.831c-0.479-1.209-0.381-2.669-1.094-3.772c0.275,1.028,0.5,3.382-0.393,4.318   c0.369-0.854-0.287-1.616-0.271-2.438c0.014-0.773,0.127-2.042,0.021-2.747c-0.102-0.669-2.369-5.396-0.756-4.464   c-0.041-0.286-0.133-0.55-0.277-0.792c-0.258,0.145-0.516,0.288-0.773,0.433c-0.924-3.095-0.273-6.56-1.094-9.644   c-0.158-0.598-0.664-0.922-0.869-1.474c-0.182-0.492,0.154-1.07,0.186-1.587c0.055-0.943-0.416-2.788,0.891-3.28   c-0.82,0.128-2.299,0.679-2.814-0.099c-0.938-1.417-1.631-2.976-1.531-4.797c-0.771,0.474-0.518-0.565-1.066-1.121   c-0.477-0.479-1.113-0.895-1.254-1.615c-0.168,0.184-0.078,1.736-0.123,2.09c-0.154,1.22,0.457,2.467-0.342,3.741   c-0.578,0.924-1.326,2.206-2.545,2.304c-1.25,0.104-2.49-1.555-1.455-2.663c-1.48,0.356-0.352,1.403-0.063,2.278   c0.398,1.211-1.047,2.597-2.033,1.465c1.098,0.826-1.424,2.293-2.203,1.439c0.176,1.104-1.105,4.851-2.867,4.164   c-0.908-0.354,0.232-2.844,0.113-3.588c-0.055,0.066-1.365,3.496-0.641,1.224c-0.365,0.615-0.555,1.265-0.566,1.944   c-0.863-0.443-0.906-2.403-0.133-2.952c-1-0.695-1.104,4.323-2.424,3.073c-0.629-0.595,0.318-3.848,0.943-4.153   c-1.107,0.413-1.633,2.563-2.27,3.528c-0.299-0.188-0.539-0.427-0.727-0.722c0.93-0.368,1.148-1.278,1.459-2.088   c-0.494,0.707-0.779,1.766-1.801,1.871c1.256-1.461,0.955-3.298,1.338-4.968c-0.148,0.014-0.291,0.014-0.438,0   c0.439,1.202-1.506,3.892-2.686,4.342c-1.707,0.65,0.357-6.196,0.648-6.956c0.295-0.762,0.305-3.011,0.773-3.411   c1.197-1.014,0.318-3.865-0.072-4.982c-0.504-1.438-0.047-3.623-1.002-4.803c-0.406-0.5-0.602-1.15-0.834-1.748   c-0.35-0.896-1.479-1.424-0.209-1.665c-0.781-0.587-1.791-0.784-1.619-2.026c0.129-0.925,0.389-2.412,0-3.229   c0.027,0.673,0.115,2.224-0.99,1.366c0.471,0.683,0.738,2.039,0.189,2.881c-1.672-0.709-2.506-2.511-3.344-3.988   c-0.23-0.403,0.729-0.814,0.957-0.267c0.17,0.413,0.75,0.558,1.156,0.678c0.914,0.271,2.203-0.228,1.48-1.369   c-0.404-0.646-2.514-1.478-1.066-2.396c-0.594-0.013-1.17-0.085-1.73-0.216c0.248-0.489,0.391-0.993,0.422-1.513   c-0.717,0.322-1.537-0.454-1.848-0.916c-0.58-0.86-1.258-0.255-2.18-0.668c0.232,0.77,0.563,1.5,0.713,2.305   c-0.246-0.495-0.473-0.999-0.68-1.513c-0.203,0.524-0.172,1.006,0.1,1.439c-0.715-1.18-1.086-1.92-0.129-3.313   c-0.35,0.063-0.693,0.087-1.039,0.071c0.271-0.511,0.559-1.015,0.859-1.512c-0.146,0.031-0.275,0.104-0.387,0.216   c-0.074-0.552,0.002-1.104,0.227-1.655c-0.676,1.209-0.779,2.562-1.539,3.744c-0.924-0.423-0.4-0.948-0.189-1.705   c0.248-0.883-0.684-1.609-1.035-2.256c0.027,0.734,0.361,1.518-0.23,2.231c-0.189-1.333-1.504-1.979-2.141-3.036   C1975.968,748.323,1975.651,746.513,1975.132,745.083" id="path4608" /></g><g class="map-country" data-country="Cambodia" id="group-kh"><path d="M2065.333,838.106   c-0.348,0.455-0.797,0.694-1.354,0.722c0.939,0.747,0.967,2.031,1.654,2.95C2065.339,840.549,2066.46,839.092,2065.333,838.106" id="path3472" /><path d="M2057.884,829.755   c-0.145,0-0.287,0-0.432,0c0.133,0.291,0.305,0.556,0.514,0.792C2057.938,830.282,2057.911,830.019,2057.884,829.755" id="path6024" /><path d="M2059.653,836.091   c0.404-0.608,0.209-0.85-0.592-0.72C2059.241,835.627,2059.437,835.865,2059.653,836.091" id="path6026" /><path d="M2052.673,813.339   c0.105-0.754,0.148-1.52-0.043-2.231c2.398,0.082,3.803-3.351,4.742-5.084c1.023-1.894,5.082-3.048,6.643-2   c0.768,0.516,2.117,0.266,3.025-0.038c1.203-0.4,2.037,0.271,3.303-0.22c2.283-0.883,3.158,2.43,4.352,0.503   c-0.201,3.016,3.664,0.907,4.637,2.908c0.477,0.979,2.5,1.03,2.48-0.463c-0.01-0.823-1.732-1.834-0.533-2.604   c0.502-0.322,0.877,0.328,1.109-0.422c0.189-0.612,0.688-0.397,1.16-0.438c0.596-0.051,0.607-0.866,1.104-0.909   c0.674-0.058,1.238,0.86,1.674,1.206c1.914,1.517,4.996-0.699,6.246-2.376c-0.057,0.554-0.014,1.19-0.273,1.729   c-0.287,0.59-1.227,0.875-1.084,1.627c0.137,0.715-0.146,1.459-0.039,2.18c0.115,0.754,0.557,1.649,0.77,2.396   c0.514,1.804,1.535,2.505,0.74,4.661c-0.352,0.983-0.963,1.872-0.689,2.889c0.213,0.787,0.715,1.536,0.719,2.387   c0.006,0.815-0.477,1.968-0.875,2.697c-0.541,0.989-0.66-0.292-1.457,0.115c-0.998,0.512-1.705,1.457-2.656,2.028   c-1.375,0.824-2.4,0.688-3.904,1.054c0.568,0.769-0.115,1.756,0.268,2.592c-0.809-0.159-2.828-1.609-3.563-0.613   c-0.482,0.652-1.387,0.75-1.281,1.597c0.111,0.893,0.334,1.903,0.732,2.691c0.463,0.923,2.131,0.973,2.193,2.303   c-0.961,0.138-0.191,0.796-0.285,1.584c-0.652-0.216-1.441-0.192-2.014-0.591c-0.498-0.344-0.646-1.401-1.436-1.25   c-1.51,0.289-3.561,1.714-4.814,0.399c-0.838,0.79,0.01,1.854-1.068,2.834c-1.047,0.952-1.877,0.476-3.031,0.92   c-0.852,0.327-1.016,0.854-1.99,0.423c-0.961-0.423-2.982-0.719-3.395-1.729c0.178,1.068-1.365,1.8-2.082,1.104   c-0.947-0.922,0.01-1.119,0.666-1.752c0.768-0.74,0.086-2.717-0.52-3.233c-1.08-0.927-1.426,1.493-1.668,2.083   c-0.662-0.6-1.182,0.272-1.811-0.049c-0.955-0.486-0.213-2.059-0.383-2.875c-0.152-0.741,0.674-1.807-0.055-2.347   c-0.508-0.376-1.549-1.685-0.178-1.857c-0.547-0.303-0.963-0.01-1.137,0.575c0.295-1.229-0.67-2.32-1.002-3.385   c-0.371-1.189,0.396-2.854-0.254-3.917C2054.327,818.169,2053.331,816.016,2052.673,813.339" id="path6044" /></g><g class="map-country" data-country="Lao PDR" id="group-la"><path d="M2035.47,752.354  c0.465-1.167,0.332-2.839,1.574-3.673c0.711-0.478,2.371,0.063,2.645-1.008c-1.641,0.878-0.043-1.761,0.221-2.239  c0.434-0.792,0.486-1.224,1.424-1.604c0.789-0.322,2.33-1.061,2.258-2.06c1.152,0.693-0.41,4.011,1.947,3.116  c1.381-0.522,1.324,0.074,2.391,0.5c1.506,0.602,0.357-1.304,0.338-1.427c-0.156-1,0.549-1.727,0.564-2.648  c0.012-0.925-0.625-1.8-1.07-2.515c-0.502-0.808-0.938-1.583-0.842-2.64c0.021-0.237,1.211-2.847,1.566-2.319  c0.359,0.53,0.217,0.848,1.234,0.601c1.57-0.382,1.564,0.683,2.301,1.529c0.777,0.898,1.701,1.742,2.537,2.596  c0.641,0.652,0.322,2.116,1.285,2.415c0.492-0.442,0.67-0.947,0.533-1.513c0.096,0.896,1.178,0.705,1.24,1.714  c0.066,1.006-0.754,2.183-0.625,3.345c0.385,3.396,4,3.548,6.332,5.095c0.768-0.845,0.652-1.633,1.861-2.088  c1.443-0.546,2.373-0.034,3.359,0.748c0.57,0.454,1.438,0.961,1.436,1.812c0,0.75-1.357,0.733-1.668,1.473  c0.637,0.271,1.928,0.072,2.057,0.947c0.1,0.67,0.615,0.646,1.096,0.925c2.035,1.17,1.188,1.38-0.176,3.023  c1.439,0.424-1.742,2.181-2.793,2.021c-0.256-0.039-2.773-0.833-3.041-0.293c-0.258,0.519,0.723,1.405,0.375,2.306  c-0.861,0.008-1.863,0.948-0.705,1.317c1.938,0.618,3.834,2.5,5.434,3.733c0.631,0.487,4.006,0.552,3.736,1.759  c-0.186,0.947-0.846,1.222-0.115,2.125c0.537,0.666,1.455,1.707,2.195,1.725c0.758,0.018,1.074,1.327,1.271,1.861  c0.451,1.226,1.242,2.131,2.066,3.102c0.473,0.559,2.107,3.201,2.961,2.961c0.83-0.233,1.154,2.362,1.904,2.696  c0.885,0.395,0.277,2.288,0.777,3.058c0.166,0.254,0.518,1.235,0.863,1.29c0.42,0.067,0.936-0.383,1.326-0.143  c0.791,0.489,0.404,1.299,1.469,1.552c1.004,0.236,1.938,1.765,3.023,2.192c-0.486,0.86-1.695,1.25-2.131,2.141  c-0.471,0.968,2.055,2.208,2.359,2.911c0.461,1.071,1.727,1.067,0.908,2.624c-0.24,0.462-0.822,0.965-0.9,1.485  c-0.07,0.486,0.436,0.821,0.361,1.396c-0.215,1.633-0.631,1.887-2,2.199c-1.178,0.27-1.656,1.771-3.232,1.793  c-1.52,0.022-1.58-1.963-2.514-2.093c-0.617-0.086-0.4,0.765-0.836,0.938s-0.914,0.211-1.359,0.324  c-0.521,0.131-2.07,0.858-1.797,1.487c0.363,0.833,1.379,1.775,0.432,2.723c-1.158,1.156-3.174-2.07-4.924-1.461  c-0.984,0.343-2.287-1.324-1.281-2.089c0.752-0.568,2.08-1.1,2.09-2.161c0.01-0.987,0.566-2.445,0.451-3.286  c-0.08-0.56-1.02-0.625-0.945-1.261c0.066-0.584,0.633-1.113,0.916-1.62c-0.301,0.136-0.553,0.119-0.754-0.048  c-0.053-0.808,1.965-1.864,0.871-3.104c-0.594-0.673-3.158-1.469-1.34-2.606c-2.676-1.089-5.322-2.956-5.369-6.246  c-0.037-2.555,1.279-6.134-1.195-7.69c-2.523-1.588-2.982-5.441-6.059-6.104c-0.395-0.086-5.617-1.648-4.039,0.315  c-1.293,0.175-1.127,1.958-1.76,2.521c-0.25,0.222-1.525,0.245-2.086,0.695c-0.867,0.698-1.082-0.056-1.592-0.464  c-0.854-0.682-2.264-1.664-3.33-2.007c-1.088-0.35-1.396,1.915-2.639,1.126c-0.328,1.979-2.896,3.356-4.223,4.729  c-0.611,0.634-1.332,0.283-1.844-0.315c-0.572-0.667,0.09-1.896,0.463-2.598c0.582-1.093,0.807-1.83,0.773-3.017  c-0.021-0.708-0.588-1.925-0.428-2.542c0.225-0.357,0.492-0.686,0.807-0.979c0.447-0.613,0.066-0.633,0.201-1.255  c0.301-1.361,0.877-2.148,0.375-3.451c-0.709-1.839,0.727-4.633-2.563-3.778c-0.377-0.001-0.68,0.145-0.912,0.44  c-0.412,0.698-0.41,0.094-1.027,0.21c-1.08,0.206-1.5-0.209-1.867-1.201c-0.525-1.413,1.656-3.125,0.973-4.175  c-0.283-0.431-1.088-1.798-1.527-2.014c-0.877-0.431-1.213,0.648-2.033,0.863C2035.501,752.835,2035.485,752.595,2035.47,752.354" id="la" /></g><g class="map-country" data-country="Brunei Darussalam" id="group-bn"><path d="M2142.481,888.723    c2.902-0.073,4.023-2.64,6.518-3.581c1.107-0.419,0.543,1.018,0.059,1.391c-1.117,0.865-1.33,1.026-1.201,2.528    c0.012,0.121,0.486,5.563-1.193,4.356c-0.637-0.456-2.061-1.464-2.473-2.173C2143.589,890.223,2143.929,889.035,2142.481,888.723" id="path6824" /><path d="M2149.526,887.499    c-0.15-1.323,0.51-0.438,0.941-1.513c0.977,1.344,1.352,3.288,1.158,4.969C2149.976,890.582,2149.558,889.012,2149.526,887.499" id="path6826" /><path d="M2146.29,895.872c7.729,0,8.26-12.026,0.525-12.026   C2139.077,883.846,2138.556,895.872,2146.29,895.872" id="bn." /></g><g class="map-country" data-country="Timor-Leste" id="group-tl"><path d="M2226.542,1008.277    c0.271,2.702,0.857,1.402,2.439,0.398c1.514-0.96,3.928-1.54,5.639-2.224c2.754-1.1,6.754-2.154,8.533-4.712    c1.025-1.471-2.029-1.171-2.67-0.979c-1.744,0.526-3.305,0.761-5.107,1.071c-1.934,0.333-3.752,0.296-5.73,0.722    c-0.746,0.161-1.779,0.065-2.379,0.58c-0.635,0.544-0.652,1.482-1.316,2.011c1.744,0.812,1.404,1.445,0.686,2.79" id="path2786" /><path d="M2217.728,1009.828    c1.262-0.989,2.785-1.644,4.395-1.95c-0.17,1.155-1.232,1.834-1.242,2.91c-0.188-0.296-0.389-0.582-0.602-0.86    C2219.632,1010.916,2218.589,1010.127,2217.728,1009.828" id="path2788" /></g></svg>